<?xml version="1.0" encoding="UTF-8" standalone="no"?><!DOCTYPE svg PUBLIC "-//W3C//DTD SVG 1.1//EN" "http://www.w3.org/Graphics/SVG/1.1/DTD/svg11.dtd"><svg width="100%" height="100%" viewBox="0 0 2481 3508" version="1.1" xmlns="http://www.w3.org/2000/svg" xmlns:xlink="http://www.w3.org/1999/xlink" xml:space="preserve" style="fill-rule:evenodd;clip-rule:evenodd;stroke-linejoin:round;stroke-miterlimit:1.41421;"><path d="M1297.71,365.14c-115.987,413.269 -504.85,554.6 -496.264,924.791c7.246,311.712 273.12,542.749 481.498,777.759c14.299,-94.914 34.704,-179.192 80.518,-269.625c46.073,-236.951 49.902,-473.123 28.955,-687.478c57.255,154.004 58.304,365.729 26.326,600.433c60.103,-93.613 121.11,-139.467 201.131,-183.335c124.618,-375.096 100.159,-665.257 -322.164,-1162.55" style="fill:#f5faf1;"/><path d="M1269.28,2140.79c-2.84,6.283 -5.737,12.533 -8.683,18.771c-69.696,276.521 -258.512,506.531 -508.325,631.917c13.047,-5.501 26.066,-11.226 39.003,-17.249c192.09,-89.27 348.542,-224.613 462.498,-386.84c-0.142,-83.501 3.406,-165.8 15.507,-246.599" style="fill:#f5faf1;"/><path d="M2217.16,1247.82c-287.479,290.804 -605.001,218.292 -791.927,534.149c-116.911,197.534 -126.371,454.382 -121.712,691.78c-3.08,3.735 -0.729,9.823 -3.866,13.57c-120.699,357.394 -449.574,622.25 -839.837,665.08c314.884,-28.719 597.247,-172.725 804.416,-389.286c248.495,-238.021 487.915,-574.728 625.09,-841.142c-106.494,384.196 -279.146,528.406 -478.247,741.87c53.483,-57.055 89.05,-56.75 152.124,-89.734c513.981,-268.477 641.996,-695.967 653.959,-1326.29" style="fill:#f5faf1;"/><path d="M118.108,-95.803l230.457,0l0,3949.3l-230.457,0l0,-3949.3" style="fill:#64a86c;"/><path d="M249.981,113.975c8.974,-27.051 7.214,-47.978 -23.234,-83.847c-8.358,29.81 -36.393,39.999 -35.773,66.697c0.519,22.482 19.688,39.147 34.711,56.09c1.031,-6.846 2.498,-12.921 5.81,-19.446c3.319,-17.084 3.589,-34.121 2.077,-49.577c4.133,11.109 4.208,26.376 1.899,43.298c4.339,-6.75 8.738,-10.056 14.51,-13.215" style="fill:#b7da9b;"/><path d="M187.426,205.114c0.944,-0.394 1.878,-0.807 2.814,-1.243c13.847,-6.437 25.126,-16.201 33.341,-27.899c-0.01,-6.022 0.244,-11.953 1.119,-17.786c-0.201,0.454 -0.415,0.908 -0.625,1.355c-5.027,19.947 -18.638,36.53 -36.649,45.573" style="fill:#b9e0c9;"/><path d="M224.334,203.07c-14.933,15.614 -35.293,26.005 -57.992,28.07c28.136,-3.087 51.842,-22.189 60.545,-47.96l0.283,-0.976c-0.336,-17.123 0.348,-35.647 8.775,-49.894c13.474,-22.777 36.369,-17.548 57.094,-38.522c-0.866,45.457 -10.089,76.288 -47.151,95.648c-4.548,2.387 -7.115,2.358 -10.966,6.474c14.351,-15.391 26.802,-25.8 34.476,-53.501c-9.883,19.214 -27.146,43.493 -45.064,60.661" style="fill:#fff;"/><path d="M249.981,384.594c8.974,-27.051 7.214,-47.978 -23.234,-83.842c-8.358,29.808 -36.393,39.998 -35.773,66.698c0.519,22.481 19.688,39.141 34.711,56.087c1.031,-6.845 2.498,-12.919 5.81,-19.442c3.319,-17.09 3.589,-34.123 2.077,-49.577c4.133,11.105 4.208,26.371 1.899,43.296c4.339,-6.748 8.738,-10.056 14.51,-13.22" style="fill:#b7da9b;"/><path d="M187.426,475.734c0.944,-0.393 1.878,-0.806 2.814,-1.241c13.847,-6.437 25.126,-16.199 33.341,-27.899c-0.01,-6.02 0.244,-11.953 1.119,-17.786c-0.201,0.456 -0.415,0.905 -0.625,1.357c-5.027,19.942 -18.638,36.53 -36.649,45.569" style="fill:#b9e0c9;"/><path d="M224.334,473.693c-14.933,15.615 -35.293,26.001 -57.992,28.07c28.136,-3.084 51.842,-22.19 60.545,-47.959l0.283,-0.979c-0.336,-17.124 0.348,-35.644 8.775,-49.89c13.474,-22.782 36.369,-17.55 57.094,-38.521c-0.866,45.451 -10.089,76.286 -47.151,95.646c-4.548,2.382 -7.115,2.358 -10.966,6.472c14.351,-15.393 26.802,-25.794 34.476,-53.504c-9.883,19.216 -27.146,43.496 -45.064,60.665" style="fill:#fff;"/><path d="M249.981,655.218c8.974,-27.051 7.214,-47.978 -23.234,-83.842c-8.358,29.807 -36.393,39.994 -35.773,66.695c0.519,22.479 19.688,39.144 34.711,56.089c1.031,-6.848 2.498,-12.919 5.81,-19.445c3.319,-17.086 3.589,-34.119 2.077,-49.577c4.133,11.11 4.208,26.375 1.899,43.3c4.339,-6.751 8.738,-10.061 14.51,-13.22" style="fill:#b7da9b;"/><path d="M187.426,746.358c0.944,-0.393 1.878,-0.808 2.814,-1.243c13.847,-6.433 25.126,-16.197 33.341,-27.897c-0.01,-6.02 0.244,-11.951 1.119,-17.786c-0.201,0.456 -0.415,0.905 -0.625,1.355c-5.027,19.942 -18.638,36.531 -36.649,45.571" style="fill:#b9e0c9;"/><path d="M224.334,744.313c-14.933,15.615 -35.293,26.005 -57.992,28.074c28.136,-3.088 51.842,-22.19 60.545,-47.963l0.283,-0.975c-0.336,-17.124 0.348,-35.649 8.775,-49.892c13.474,-22.782 36.369,-17.552 57.094,-38.523c-0.866,45.456 -10.089,76.286 -47.151,95.646c-4.548,2.382 -7.115,2.362 -10.966,6.475c14.351,-15.392 26.802,-25.797 34.476,-53.503c-9.883,19.214 -27.146,43.496 -45.064,60.661" style="fill:#fff;"/><path d="M249.981,925.84c8.974,-27.051 7.214,-47.98 -23.234,-83.842c-8.358,29.809 -36.393,39.998 -35.773,66.697c0.519,22.477 19.688,39.14 34.711,56.085c1.031,-6.844 2.498,-12.921 5.81,-19.442c3.319,-17.086 3.589,-34.122 2.077,-49.58c4.133,11.108 4.208,26.375 1.899,43.304c4.339,-6.754 8.738,-10.065 14.51,-13.222" style="fill:#b7da9b;"/><path d="M187.426,1016.98c0.944,-0.393 1.878,-0.804 2.814,-1.24c13.847,-6.437 25.126,-16.2 33.341,-27.901c-0.01,-6.02 0.244,-11.955 1.119,-17.782c-0.201,0.452 -0.415,0.902 -0.625,1.355c-5.027,19.941 -18.638,36.532 -36.649,45.568" style="fill:#b9e0c9;"/><path d="M224.334,1014.94c-14.933,15.615 -35.293,26.003 -57.992,28.072c28.136,-3.086 51.842,-22.192 60.545,-47.966l0.283,-0.974c-0.336,-17.124 0.348,-35.645 8.775,-49.89c13.474,-22.781 36.369,-17.554 57.094,-38.521c-0.866,45.454 -10.089,76.281 -47.151,95.646c-4.548,2.382 -7.115,2.361 -10.966,6.476c14.351,-15.394 26.802,-25.802 34.476,-53.508c-9.883,19.218 -27.146,43.5 -45.064,60.665" style="fill:#fff;"/><path d="M249.981,1196.46c8.974,-27.05 7.214,-47.977 -23.234,-83.839c-8.358,29.805 -36.393,39.996 -35.773,66.693c0.519,22.481 19.688,39.143 34.711,56.087c1.031,-6.844 2.498,-12.919 5.81,-19.444c3.319,-17.082 3.589,-34.118 2.077,-49.577c4.133,11.109 4.208,26.376 1.899,43.301c4.339,-6.751 8.738,-10.061 14.51,-13.221" style="fill:#b7da9b;"/><path d="M187.426,1287.6c0.944,-0.393 1.878,-0.803 2.814,-1.243c13.847,-6.437 25.126,-16.2 33.341,-27.897c-0.01,-6.02 0.244,-11.955 1.119,-17.786c-0.201,0.456 -0.415,0.906 -0.625,1.359c-5.027,19.941 -18.638,36.526 -36.649,45.567" style="fill:#b9e0c9;"/><path d="M224.334,1285.56c-14.933,15.618 -35.293,26.007 -57.992,28.075c28.136,-3.09 51.842,-22.192 60.545,-47.965l0.283,-0.975c-0.336,-17.124 0.348,-35.644 8.775,-49.889c13.474,-22.781 36.369,-17.554 57.094,-38.522c-0.866,45.453 -10.089,76.282 -47.151,95.646c-4.548,2.383 -7.115,2.358 -10.966,6.472c14.351,-15.393 26.802,-25.797 34.476,-53.503c-9.883,19.214 -27.146,43.499 -45.064,60.661" style="fill:#fff;"/><path d="M249.981,1467.08c8.974,-27.047 7.214,-47.976 -23.234,-83.838c-8.358,29.802 -36.393,39.995 -35.773,66.693c0.519,22.482 19.688,39.142 34.711,56.092c1.031,-6.846 2.498,-12.921 5.81,-19.448c3.319,-17.088 3.589,-34.119 2.077,-49.577c4.133,11.108 4.208,26.375 1.899,43.3c4.339,-6.75 8.738,-10.06 14.51,-13.222" style="fill:#b7da9b;"/><path d="M187.426,1558.22c0.944,-0.391 1.878,-0.806 2.814,-1.241c13.847,-6.437 25.126,-16.201 33.341,-27.901c-0.01,-6.018 0.244,-11.951 1.119,-17.786c-0.201,0.458 -0.415,0.91 -0.625,1.359c-5.027,19.942 -18.638,36.53 -36.649,45.569" style="fill:#b9e0c9;"/><path d="M224.334,1556.18c-14.933,15.619 -35.293,26.003 -57.992,28.072c28.136,-3.086 51.842,-22.188 60.545,-47.961l0.283,-0.975c-0.336,-17.126 0.348,-35.648 8.775,-49.894c13.474,-22.78 36.369,-17.55 57.094,-38.525c-0.866,45.461 -10.089,76.29 -47.151,95.65c-4.548,2.386 -7.115,2.362 -10.966,6.472c14.351,-15.389 26.802,-25.794 34.476,-53.501c-9.883,19.215 -27.146,43.497 -45.064,60.662" style="fill:#fff;"/><path d="M249.981,1737.71c8.974,-27.049 7.214,-47.978 -23.234,-83.842c-8.358,29.81 -36.393,39.994 -35.773,66.697c0.519,22.478 19.688,39.142 34.711,56.088c1.031,-6.849 2.498,-12.92 5.81,-19.448c3.319,-17.082 3.589,-34.119 2.077,-49.573c4.133,11.108 4.208,26.371 1.899,43.296c4.339,-6.75 8.738,-10.056 14.51,-13.218" style="fill:#b7da9b;"/><path d="M187.426,1828.85c0.944,-0.395 1.878,-0.806 2.814,-1.245c13.847,-6.437 25.126,-16.195 33.341,-27.897c-0.01,-6.019 0.244,-11.951 1.119,-17.782c-0.201,0.456 -0.415,0.903 -0.625,1.351c-5.027,19.946 -18.638,36.536 -36.649,45.573" style="fill:#b9e0c9;"/><path d="M224.334,1826.8c-14.933,15.625 -35.293,26.005 -57.992,28.076c28.136,-3.088 51.842,-22.188 60.545,-47.965l0.283,-0.973c-0.336,-17.126 0.348,-35.64 8.775,-49.892c13.474,-22.781 36.369,-17.552 57.094,-38.526c-0.866,45.458 -10.089,76.293 -47.151,95.649c-4.548,2.384 -7.115,2.36 -10.966,6.474c14.351,-15.389 26.802,-25.798 34.476,-53.504c-9.883,19.218 -27.146,43.502 -45.064,60.661" style="fill:#fff;"/><path d="M249.981,2008.33c8.974,-27.047 7.214,-47.974 -23.234,-83.842c-8.358,29.813 -36.393,40.002 -35.773,66.699c0.519,22.481 19.688,39.148 34.711,56.087c1.031,-6.844 2.498,-12.923 5.81,-19.446c3.319,-17.09 3.589,-34.118 2.077,-49.573c4.133,11.109 4.208,26.368 1.899,43.295c4.339,-6.747 8.738,-10.059 14.51,-13.22" style="fill:#b7da9b;"/><path d="M187.426,2099.47c0.944,-0.39 1.878,-0.805 2.814,-1.24c13.847,-6.438 25.126,-16.203 33.341,-27.902c-0.01,-6.018 0.244,-11.955 1.119,-17.781c-0.201,0.451 -0.415,0.899 -0.625,1.35c-5.027,19.947 -18.638,36.536 -36.649,45.573" style="fill:#b9e0c9;"/><path d="M224.334,2097.42c-14.933,15.62 -35.293,26.009 -57.992,28.076c28.136,-3.088 51.842,-22.188 60.545,-47.97l0.283,-0.972c-0.336,-17.114 0.348,-35.641 8.775,-49.886c13.474,-22.779 36.369,-17.554 57.094,-38.53c-0.866,45.459 -10.089,76.294 -47.151,95.646c-4.548,2.393 -7.115,2.364 -10.966,6.482c14.351,-15.388 26.802,-25.801 34.476,-53.503c-9.883,19.214 -27.146,43.494 -45.064,60.657" style="fill:#fff;"/><path d="M249.981,2278.95c8.974,-27.051 7.214,-47.978 -23.234,-83.843c-8.358,29.806 -36.393,39.999 -35.773,66.7c0.519,22.477 19.688,39.14 34.711,56.083c1.031,-6.844 2.498,-12.919 5.81,-19.45c3.319,-17.082 3.589,-34.111 2.077,-49.569c4.133,11.105 4.208,26.371 1.899,43.298c4.339,-6.75 8.738,-10.054 14.51,-13.22" style="fill:#b7da9b;"/><path d="M187.426,2370.09c0.944,-0.399 1.878,-0.805 2.814,-1.241c13.847,-6.433 25.126,-16.203 33.341,-27.901c-0.01,-6.018 0.244,-11.951 1.119,-17.79c-0.201,0.464 -0.415,0.916 -0.625,1.363c-5.027,19.939 -18.638,36.532 -36.649,45.569" style="fill:#b9e0c9;"/><path d="M224.334,2368.05c-14.933,15.612 -35.293,26.005 -57.992,28.067c28.136,-3.075 51.842,-22.192 60.545,-47.953l0.283,-0.976c-0.336,-17.127 0.348,-35.653 8.775,-49.899c13.474,-22.778 36.369,-17.545 57.094,-38.525c-0.866,45.463 -10.089,76.298 -47.151,95.654c-4.548,2.385 -7.115,2.356 -10.966,6.474c14.351,-15.397 26.802,-25.798 34.476,-53.508c-9.883,19.218 -27.146,43.503 -45.064,60.665" style="fill:#fff;"/><path d="M249.981,2549.58c8.974,-27.059 7.214,-47.981 -23.234,-83.842c-8.358,29.794 -36.393,39.986 -35.773,66.692c0.519,22.477 19.688,39.143 34.711,56.091c1.031,-6.849 2.498,-12.919 5.81,-19.45c3.319,-17.086 3.589,-34.119 2.077,-49.577c4.133,11.113 4.208,26.379 1.899,43.298c4.339,-6.75 8.738,-10.058 14.51,-13.212" style="fill:#b7da9b;"/><path d="M187.426,2640.71c0.944,-0.391 1.878,-0.797 2.814,-1.241c13.847,-6.437 25.126,-16.195 33.341,-27.893c-0.01,-6.022 0.244,-11.955 1.119,-17.786c-0.201,0.448 -0.415,0.896 -0.625,1.355c-5.027,19.938 -18.638,36.532 -36.649,45.565" style="fill:#b9e0c9;"/><path d="M224.334,2638.67c-14.933,15.613 -35.293,26.001 -57.992,28.072c28.136,-3.092 51.842,-22.184 60.545,-47.965l0.283,-0.973c-0.336,-17.13 0.348,-35.648 8.775,-49.894c13.474,-22.782 36.369,-17.549 57.094,-38.521c-0.866,45.455 -10.089,76.282 -47.151,95.646c-4.548,2.384 -7.115,2.364 -10.966,6.47c14.351,-15.385 26.802,-25.798 34.476,-53.5c-9.883,19.222 -27.146,43.498 -45.064,60.665" style="fill:#fff;"/><path d="M249.981,2820.2c8.974,-27.051 7.214,-47.978 -23.234,-83.842c-8.358,29.806 -36.393,40.002 -35.773,66.699c0.519,22.477 19.688,39.144 34.711,56.083c1.031,-6.843 2.498,-12.919 5.81,-19.441c3.319,-17.09 3.589,-34.119 2.077,-49.573c4.133,11.1 4.208,26.367 1.899,43.29c4.339,-6.746 8.738,-10.05 14.51,-13.216" style="fill:#b7da9b;"/><path d="M187.426,2911.34c0.944,-0.395 1.878,-0.81 2.814,-1.245c13.847,-6.438 25.126,-16.195 33.341,-27.902c-0.01,-6.018 0.244,-11.95 1.119,-17.781c-0.201,0.455 -0.415,0.907 -0.625,1.351c-5.027,19.95 -18.638,36.535 -36.649,45.577" style="fill:#b9e0c9;"/><path d="M224.334,2909.29c-14.933,15.621 -35.293,26.009 -57.992,28.068c28.136,-3.08 51.842,-22.184 60.545,-47.961l0.283,-0.973c-0.336,-17.122 0.348,-35.64 8.775,-49.886c13.474,-22.787 36.369,-17.554 57.094,-38.529c-0.866,45.459 -10.089,76.294 -47.151,95.646c-4.548,2.384 -7.115,2.36 -10.966,6.478c14.351,-15.394 26.802,-25.798 34.476,-53.504c-9.883,19.214 -27.146,43.498 -45.064,60.661" style="fill:#fff;"/><path d="M249.981,3090.81c8.974,-27.043 7.214,-47.97 -23.234,-83.838c-8.358,29.805 -36.393,39.998 -35.773,66.695c0.519,22.477 19.688,39.144 34.711,56.083c1.031,-6.84 2.498,-12.915 5.81,-19.441c3.319,-17.082 3.589,-34.115 2.077,-49.578c4.133,11.105 4.208,26.376 1.899,43.307c4.339,-6.759 8.738,-10.063 14.51,-13.228" style="fill:#b7da9b;"/><path d="M187.426,3181.96c0.944,-0.395 1.878,-0.806 2.814,-1.242c13.847,-6.433 25.126,-16.206 33.341,-27.897c-0.01,-6.022 0.244,-11.954 1.119,-17.793c-0.201,0.455 -0.415,0.911 -0.625,1.362c-5.027,19.939 -18.638,36.532 -36.649,45.57" style="fill:#b9e0c9;"/><path d="M224.334,3179.92c-14.933,15.613 -35.293,26.001 -57.992,28.068c28.136,-3.08 51.842,-22.193 60.545,-47.962l0.283,-0.98c-0.336,-17.114 0.348,-35.64 8.775,-49.89c13.474,-22.775 36.369,-17.55 57.094,-38.522c-0.866,45.464 -10.089,76.29 -47.151,95.651c-4.548,2.38 -7.115,2.364 -10.966,6.469c14.351,-15.388 26.802,-25.797 34.476,-53.499c-9.883,19.218 -27.146,43.498 -45.064,60.665" style="fill:#fff;"/><path d="M249.981,3361.44c8.974,-27.047 7.214,-47.974 -23.234,-83.834c-8.358,29.793 -36.393,39.986 -35.773,66.686c0.519,22.478 19.688,39.148 34.711,56.108c1.031,-6.864 2.498,-12.923 5.81,-19.462c3.319,-17.082 3.589,-34.118 2.077,-49.577c4.133,11.105 4.208,26.371 1.899,43.294c4.339,-6.746 8.738,-10.054 14.51,-13.215" style="fill:#b7da9b;"/><path d="M187.426,3452.58c0.944,-0.382 1.878,-0.802 2.814,-1.253c13.847,-6.409 25.126,-16.199 33.341,-27.901c-0.01,-5.99 0.244,-11.947 1.119,-17.765c-0.201,0.455 -0.415,0.907 -0.625,1.358c-5.027,19.926 -18.638,36.54 -36.649,45.561" style="fill:#b9e0c9;"/><path d="M224.334,3450.52c-14.933,15.641 -35.293,26.021 -57.992,28.075c28.136,-3.068 51.842,-22.188 60.545,-47.965l0.283,-0.94c-0.336,-17.139 0.348,-35.669 8.775,-49.91c13.474,-22.787 36.369,-17.554 57.094,-38.53c-0.866,45.459 -10.089,76.282 -47.151,95.65c-4.548,2.369 -7.115,2.369 -10.966,6.478c14.351,-15.393 26.802,-25.81 34.476,-53.503c-9.883,19.193 -27.146,43.506 -45.064,60.645" style="fill:#fff;"/><path d="M1803.4,280.155c1.046,-5.048 1.526,-8.875 1.526,-11.56c0,-9.363 -4.972,-14.653 -13.469,-14.653c-5.769,0 -11.063,2.767 -15.714,8.143l1.603,-7.494l-12.903,0l-8.834,42.253l14.445,0l3.687,-17.668c1.925,-9.114 5.693,-13.676 11.381,-13.676c3.21,0 5.212,2.2 5.212,6.189c0,1.219 -0.158,2.604 -0.48,4.148l-4.329,21.007l14.351,0l3.524,-16.689M1849.27,274.375c0.561,-2.932 0.883,-5.538 0.883,-7.491c0,-8.057 -6.734,-13.351 -19.161,-13.351c-4.728,0 -12.7,1.907 -17.192,3.53l-1.416,9.904c4.171,-2.114 11.874,-4.4 16.683,-4.4c5.209,0 7.939,2.28 7.939,6.514c0,0.409 0,0.895 -0.082,1.386c-2.327,-0.244 -4.569,-0.405 -6.653,-0.405c-15.795,0 -24.291,5.859 -24.291,15.218c0,7.41 5.289,12.467 13.789,12.467c6.169,0 11.06,-2.45 14.27,-7.255l-0.801,6.352l11.943,0c0.321,-4.073 1.041,-7.574 1.684,-10.588l2.405,-11.881M1835.24,277.713c-1.042,6.999 -5.534,11.072 -10.502,11.072c-3.207,0 -5.29,-1.957 -5.29,-4.724c0,-4.234 4.008,-6.51 11.703,-6.51c1.281,0 2.644,0 4.089,0.162M1878.94,240.997l-15.072,4.071l-2.083,9.932l-8.419,0l-2.083,10.01l8.419,0l-3.288,15.794c-0.24,1.304 -0.403,2.689 -0.403,4.156c0,8.057 4.891,12.71 13.469,12.71c2.005,0 4.65,-0.327 7.938,-0.91l2.084,-10.013c-2.002,0.571 -3.606,0.813 -4.729,0.813c-3.206,0 -4.492,-1.304 -4.492,-4.312c0,-0.65 0.163,-1.873 0.566,-3.665l3.043,-14.573l10.181,0l2.087,-10.01l-10.18,0l2.962,-14.003M1888.41,255l-3.451,16.689c-1.037,4.966 -1.522,8.873 -1.522,11.642c0,9.359 4.973,14.583 13.469,14.583c5.774,0 11.068,-2.779 15.714,-8.154l-1.603,7.096l12.907,0l8.818,-41.856l-14.429,0l-3.687,17.662c-1.924,9.118 -5.932,13.759 -11.145,13.759c-3.527,0 -5.452,-2.195 -5.452,-6.266c0,-1.304 0.163,-2.69 0.48,-4.153l4.329,-21.002l-14.428,0M1969.23,254.752c-1.924,-0.567 -3.686,-0.893 -5.448,-0.893c-5.611,0 -9.623,2.769 -13.631,8.63l1.526,-7.652l-13.07,0l-8.431,42.007l14.445,0l3.849,-18.075c1.921,-8.793 4.729,-12.945 11.3,-12.945c1.603,0 3.691,0.409 6.258,1.141l3.202,-12.213M1996.18,271.608l-16.756,0c1.608,-6.026 5.294,-9.523 9.705,-9.523c4.403,0 7.214,2.925 7.214,7.566c0,0.653 -0.085,1.302 -0.163,1.957M2007.16,279.669c0.642,-2.936 0.964,-5.622 0.964,-7.98c0,-11.48 -6.254,-18.078 -17.717,-18.078c-7.775,0 -14.033,2.28 -18.359,6.598c-4.492,4.476 -7.373,11.558 -7.373,18.396c0,11.887 7.695,19.637 20.679,19.637c5.212,0 10.343,-0.814 15.23,-2.377l1.603,-10.337c-4.728,2.118 -9.619,3.174 -14.025,3.174c-6.653,0 -10.023,-2.85 -10.584,-9.033l29.582,0" style="fill:#64a86c;"/><path d="M1863.35,323.276l4.207,0l7.145,20.479l4.195,-20.479l3.231,0l-5.127,24.414l-4.228,0l-7.076,-20.585l-4.26,20.585l-3.182,0l5.095,-24.414" style="fill:#1d2121;"/><path d="M1893.03,338.824l-0.7,-0.031c-0.252,-0.002 -0.622,-0.002 -1.107,-0.002c-2.474,0 -4.284,0.324 -5.436,0.969c-1.147,0.647 -1.725,1.662 -1.725,3.033c0,0.851 0.285,1.532 0.846,2.049c0.562,0.515 1.31,0.773 2.23,0.773c1.575,0 2.877,-0.598 3.923,-1.794c1.037,-1.201 1.7,-2.865 1.969,-4.997M1896.36,337.656l-1.079,5.363c-0.24,1.166 -0.419,2.084 -0.525,2.748c-0.113,0.662 -0.203,1.305 -0.272,1.923l-2.771,0l0.382,-2.775c-0.822,1.044 -1.713,1.827 -2.673,2.328c-0.957,0.506 -2.01,0.759 -3.149,0.759c-1.632,0 -2.955,-0.465 -3.964,-1.382c-1.013,-0.924 -1.514,-2.124 -1.514,-3.601c0,-2.032 0.843,-3.605 2.523,-4.728c1.681,-1.121 4.053,-1.685 7.105,-1.685c0.342,0 0.74,0.012 1.2,0.043c0.464,0.031 1.07,0.075 1.811,0.126l0.085,-0.608l0.033,-0.59c0,-1.17 -0.33,-2.063 -0.981,-2.682c-0.647,-0.616 -1.599,-0.925 -2.84,-0.925c-0.7,0 -1.477,0.105 -2.331,0.309c-0.851,0.205 -1.807,0.521 -2.869,0.944l0.391,-2.786c1.025,-0.309 1.989,-0.545 2.893,-0.699c0.903,-0.161 1.749,-0.246 2.539,-0.246c1.941,0 3.471,0.49 4.593,1.466c1.123,0.981 1.685,2.318 1.685,4.002c0,0.399 -0.025,0.823 -0.069,1.26c-0.045,0.439 -0.11,0.923 -0.203,1.436" style="fill:#1d2121;"/><path d="M1913.25,330.523l-0.797,2.665c-0.798,-0.293 -1.547,-0.516 -2.238,-0.657c-0.696,-0.146 -1.347,-0.214 -1.954,-0.214c-1.989,0 -3.637,0.698 -4.964,2.086c-1.326,1.389 -1.989,3.125 -1.989,5.194c0,1.709 0.467,3.08 1.399,4.116c0.94,1.042 2.189,1.554 3.756,1.554c0.545,0 1.147,-0.067 1.798,-0.203c0.651,-0.141 1.372,-0.34 2.149,-0.607l-0.379,2.958c-0.736,0.202 -1.493,0.34 -2.258,0.44c-0.761,0.098 -1.546,0.147 -2.356,0.147c-2.266,0 -4.097,-0.753 -5.489,-2.257c-1.392,-1.509 -2.091,-3.489 -2.091,-5.94c0,-1.396 0.26,-2.747 0.785,-4.051c0.525,-1.292 1.266,-2.419 2.23,-3.369c0.944,-0.936 2.038,-1.634 3.283,-2.08c1.238,-0.449 2.71,-0.673 4.411,-0.673c0.871,0 1.693,0.077 2.462,0.224c0.773,0.15 1.522,0.378 2.242,0.667" style="fill:#1d2121;"/><path d="M1917.13,321.405l3.271,0l-2.437,11.378c0.789,-1.01 1.672,-1.775 2.657,-2.301c0.981,-0.52 2.018,-0.777 3.129,-0.777c1.685,0 3.011,0.509 3.988,1.536c0.976,1.028 1.46,2.427 1.46,4.199c0,0.43 -0.032,0.898 -0.093,1.417c-0.061,0.514 -0.163,1.1 -0.297,1.759l-1.856,9.074l-3.34,0l2.051,-9.672c0.077,-0.39 0.134,-0.759 0.178,-1.123l0.057,-1.017c0,-1.107 -0.28,-1.957 -0.854,-2.558c-0.574,-0.597 -1.367,-0.901 -2.397,-0.901c-1.42,0 -2.653,0.582 -3.682,1.74c-1.042,1.149 -1.774,2.767 -2.202,4.842l-1.814,8.689l-3.296,0l5.477,-26.285" style="fill:#1d2121;"/><path d="M1935.66,321.405l3.271,0l-2.437,11.378c0.789,-1.01 1.673,-1.775 2.657,-2.301c0.981,-0.52 2.019,-0.777 3.13,-0.777c1.68,0 3.01,0.509 3.983,1.536c0.976,1.028 1.465,2.427 1.465,4.199c0,0.43 -0.033,0.898 -0.094,1.417c-0.061,0.514 -0.162,1.1 -0.297,1.759l-1.855,9.074l-3.345,0l2.051,-9.672c0.085,-0.39 0.138,-0.759 0.183,-1.123l0.057,-1.017c0,-1.107 -0.281,-1.957 -0.855,-2.558c-0.569,-0.597 -1.367,-0.901 -2.396,-0.901c-1.42,0 -2.653,0.582 -3.683,1.74c-1.042,1.149 -1.774,2.767 -2.205,4.842l-1.811,8.689l-3.296,0l5.477,-26.285" style="fill:#1d2121;"/><path d="M1960.64,338.824l-0.7,-0.031c-0.257,-0.002 -0.627,-0.002 -1.111,-0.002c-2.47,0 -4.285,0.324 -5.432,0.969c-1.151,0.647 -1.729,1.662 -1.729,3.033c0,0.851 0.284,1.532 0.85,2.049c0.558,0.515 1.302,0.773 2.23,0.773c1.566,0 2.873,-0.598 3.918,-1.794c1.042,-1.201 1.697,-2.865 1.974,-4.997M1963.97,337.656l-1.082,5.363c-0.236,1.166 -0.419,2.084 -0.525,2.748c-0.118,0.662 -0.204,1.305 -0.273,1.923l-2.775,0l0.391,-2.775c-0.83,1.044 -1.717,1.827 -2.677,2.328c-0.957,0.506 -2.006,0.759 -3.146,0.759c-1.632,0 -2.958,-0.465 -3.967,-1.382c-1.009,-0.924 -1.51,-2.124 -1.51,-3.601c0,-2.032 0.843,-3.605 2.519,-4.728c1.681,-1.121 4.049,-1.685 7.104,-1.685c0.342,0 0.741,0.012 1.205,0.043c0.456,0.031 1.066,0.075 1.807,0.126l0.085,-0.608l0.033,-0.59c0,-1.17 -0.33,-2.063 -0.981,-2.682c-0.651,-0.616 -1.599,-0.925 -2.844,-0.925c-0.696,0 -1.473,0.105 -2.324,0.309c-0.854,0.205 -1.806,0.521 -2.872,0.944l0.39,-2.786c1.026,-0.309 1.99,-0.545 2.889,-0.699c0.908,-0.161 1.754,-0.246 2.543,-0.246c1.941,0 3.471,0.49 4.59,1.466c1.127,0.981 1.689,2.318 1.689,4.002c0,0.399 -0.025,0.823 -0.069,1.26c-0.049,0.439 -0.11,0.923 -0.2,1.436" style="fill:#1d2121;"/><path d="M1970.71,321.405l3.268,0l-5.477,26.285l-3.251,0l5.46,-26.285" style="fill:#1d2121;"/><path d="M1981.07,324.499l-1.155,5.463l4.455,0l-0.561,2.563l-4.403,0l-1.876,8.846l-0.179,0.991l-0.057,0.832c0,0.651 0.179,1.166 0.542,1.542c0.357,0.379 0.858,0.57 1.505,0.57l0.712,-0.09c0.289,-0.051 0.675,-0.138 1.152,-0.26l-0.562,2.631c-0.415,0.103 -0.797,0.183 -1.152,0.229l-0.996,0.084c-1.469,0 -2.58,-0.363 -3.349,-1.076c-0.769,-0.719 -1.152,-1.746 -1.152,-3.105l0.057,-0.952l0.163,-1.052l1.933,-9.19l-3.54,0l0.528,-2.563l3.537,0l0.891,-4.33l3.507,-1.133" style="fill:#1d2121;"/><path d="M1986.58,329.962l3.177,0l-3.702,17.728l-3.182,0l3.707,-17.728M1990.77,325.669l-3.467,0l0.765,-3.658l3.463,0l-0.761,3.658" style="fill:#1d2121;"/><path d="M2003.41,337.21c0,-1.466 -0.378,-2.65 -1.151,-3.55c-0.765,-0.895 -1.762,-1.343 -3.003,-1.343c-1.628,0 -3.016,0.821 -4.167,2.46c-1.147,1.65 -1.725,3.677 -1.725,6.093c0,1.396 0.358,2.515 1.07,3.35c0.708,0.84 1.656,1.255 2.84,1.255c1.668,0 3.105,-0.806 4.317,-2.423c1.217,-1.614 1.819,-3.561 1.819,-5.842M2005.14,330.027l3.214,0l-3.67,17.975c-0.496,2.453 -1.514,4.288 -3.056,5.509c-1.538,1.227 -3.589,1.845 -6.153,1.845c-1.025,0 -2.062,-0.111 -3.1,-0.329c-1.046,-0.216 -2.116,-0.546 -3.21,-0.991l0.866,-2.785c0.899,0.508 1.795,0.879 2.678,1.131c0.891,0.252 1.786,0.38 2.706,0.38c2.026,0 3.6,-0.657 4.724,-1.969c1.127,-1.308 1.876,-3.378 2.262,-6.191c-0.826,1.105 -1.75,1.945 -2.779,2.515c-1.025,0.567 -2.14,0.85 -3.349,0.85c-1.965,0 -3.499,-0.639 -4.61,-1.917c-1.111,-1.273 -1.668,-3.039 -1.668,-5.285c0,-1.67 0.252,-3.251 0.769,-4.735c0.516,-1.48 1.241,-2.74 2.176,-3.788c0.77,-0.84 1.628,-1.491 2.588,-1.937c0.961,-0.449 1.97,-0.673 3.032,-0.673c1.485,0 2.71,0.311 3.67,0.942c0.956,0.618 1.697,1.583 2.218,2.873l0.692,-3.42" style="fill:#1d2121;"/><path d="M2024.04,339.668l-12.435,0l-0.024,0.474l-0.009,0.401c0,1.617 0.456,2.859 1.364,3.727c0.907,0.875 2.201,1.31 3.878,1.31c0.833,0 1.655,-0.097 2.457,-0.295c0.798,-0.187 1.595,-0.498 2.381,-0.905l-0.269,2.777c-0.928,0.346 -1.823,0.606 -2.702,0.773c-0.871,0.169 -1.737,0.261 -2.592,0.261c-2.392,0 -4.273,-0.714 -5.644,-2.141c-1.367,-1.426 -2.054,-3.377 -2.054,-5.847c0,-1.379 0.219,-2.7 0.659,-3.965c0.439,-1.268 1.074,-2.411 1.892,-3.424c0.874,-1.078 1.896,-1.896 3.08,-2.454c1.188,-0.555 2.486,-0.834 3.894,-0.834c2.006,0 3.597,0.619 4.761,1.856c1.168,1.237 1.754,2.935 1.754,5.09c0,0.505 -0.029,1.021 -0.094,1.546c-0.065,0.531 -0.163,1.077 -0.297,1.65M2021.4,337.347l0.094,-0.619l0.028,-0.581c0,-1.352 -0.342,-2.417 -1.025,-3.201c-0.679,-0.779 -1.612,-1.168 -2.787,-1.168c-1.29,0 -2.47,0.515 -3.524,1.54c-1.05,1.024 -1.774,2.371 -2.157,4.029l9.371,0" style="fill:#1d2121;"/><path d="M2037.95,329.821l-0.729,3.058l-0.854,-0.22l-0.891,-0.073c-1.49,0 -2.673,0.49 -3.56,1.473c-0.887,0.987 -1.567,2.6 -2.039,4.834l-1.876,8.797l-3.369,0l3.691,-17.728l2.974,0l-0.594,2.807c0.858,-1.129 1.725,-1.949 2.588,-2.464c0.875,-0.52 1.823,-0.779 2.844,-0.779l0.83,0.077l0.985,0.218" style="fill:#1d2121;"/><path d="M2050.6,323.276l3.382,0l-2.145,10.447l11.719,-10.447l4.504,0l-13.313,11.495l9.358,12.919l-3.983,0l-8.696,-12.215l-2.539,12.215l-3.385,0l5.098,-24.414" style="fill:#1d2121;"/><path d="M2070.92,321.405l3.267,0l-5.48,26.285l-3.252,0l5.465,-26.285" style="fill:#1d2121;"/><path d="M2076.09,329.962l3.178,0l-3.699,17.728l-3.19,0l3.711,-17.728M2080.28,325.669l-3.463,0l0.761,-3.658l3.467,0l-0.765,3.658" style="fill:#1d2121;"/><path d="M2106.1,336.783l-2.324,10.907l-3.23,0l2.217,-10.48l0.13,-0.811l0.053,-0.924c0,-0.987 -0.248,-1.752 -0.74,-2.301c-0.489,-0.551 -1.164,-0.826 -2.035,-0.826c-1.31,0 -2.405,0.543 -3.287,1.615c-0.875,1.081 -1.539,2.686 -1.995,4.83l-1.859,8.897l-3.231,0l2.149,-10.343c0.093,-0.46 0.15,-0.851 0.195,-1.174l0.053,-0.871c0,-0.899 -0.24,-1.621 -0.732,-2.154c-0.489,-0.536 -1.148,-0.8 -1.97,-0.8c-1.302,0 -2.429,0.531 -3.353,1.593c-0.924,1.062 -1.595,2.58 -2.03,4.559l-1.929,9.19l-3.263,0l3.674,-17.763l2.873,0l-0.627,2.887c0.859,-1.097 1.766,-1.91 2.722,-2.437c0.965,-0.521 2.027,-0.777 3.182,-0.777c1.184,0 2.153,0.313 2.913,0.958c0.745,0.632 1.27,1.568 1.551,2.807c0.814,-1.296 1.709,-2.254 2.694,-2.877c0.98,-0.612 2.091,-0.925 3.328,-0.925c1.607,0 2.844,0.459 3.723,1.379c0.867,0.916 1.314,2.206 1.314,3.864c0.001,0.447 -0.016,0.82 -0.044,1.133l-0.122,0.844" style="fill:#1d2121;"/><path d="M2119.01,338.824l-0.7,-0.031c-0.248,-0.002 -0.623,-0.002 -1.107,-0.002c-2.466,0 -4.289,0.324 -5.432,0.969c-1.156,0.647 -1.734,1.662 -1.734,3.033c0,0.851 0.285,1.532 0.855,2.049c0.553,0.515 1.302,0.773 2.226,0.773c1.57,0 2.881,-0.598 3.922,-1.794c1.042,-1.201 1.701,-2.865 1.969,-4.997M2122.34,337.656l-1.082,5.363c-0.232,1.166 -0.411,2.084 -0.521,2.748c-0.118,0.662 -0.204,1.305 -0.277,1.923l-2.771,0l0.391,-2.775c-0.826,1.044 -1.717,1.827 -2.673,2.328c-0.961,0.506 -2.011,0.759 -3.15,0.759c-1.636,0 -2.958,-0.465 -3.967,-1.382c-1.013,-0.924 -1.51,-2.124 -1.51,-3.601c0,-2.032 0.838,-3.605 2.519,-4.728c1.684,-1.121 4.053,-1.685 7.104,-1.685c0.338,0 0.737,0.012 1.205,0.043c0.456,0.031 1.066,0.075 1.807,0.126l0.085,-0.608l0.028,-0.59c0,-1.17 -0.321,-2.063 -0.98,-2.682c-0.647,-0.616 -1.595,-0.925 -2.84,-0.925c-0.692,0 -1.473,0.105 -2.324,0.309c-0.858,0.205 -1.806,0.521 -2.869,0.944l0.387,-2.786c1.03,-0.309 1.99,-0.545 2.893,-0.699c0.903,-0.161 1.75,-0.246 2.539,-0.246c1.941,0 3.471,0.49 4.59,1.466c1.127,0.981 1.685,2.318 1.685,4.002c0,0.399 -0.021,0.823 -0.065,1.26c-0.049,0.439 -0.11,0.923 -0.204,1.436" style="fill:#1d2121;"/><path d="M2136.91,330.488l-0.858,2.635c-0.664,-0.368 -1.307,-0.639 -1.957,-0.82c-0.648,-0.177 -1.307,-0.262 -1.974,-0.262c-1.151,0 -2.067,0.207 -2.746,0.631c-0.684,0.427 -1.026,0.986 -1.026,1.69c0,0.83 0.879,1.77 2.641,2.814c0.614,0.368 1.098,0.659 1.452,0.879c0.965,0.616 1.665,1.284 2.125,2.008c0.455,0.718 0.687,1.53 0.687,2.421c0,1.741 -0.667,3.117 -1.977,4.142c-1.327,1.022 -3.134,1.528 -5.416,1.528c-0.968,0 -1.921,-0.087 -2.836,-0.254c-0.916,-0.171 -1.807,-0.43 -2.67,-0.778l0.871,-2.777c0.688,0.41 1.408,0.715 2.157,0.906c0.761,0.193 1.566,0.293 2.404,0.293c1.319,0 2.328,-0.259 3.044,-0.773c0.729,-0.517 1.091,-1.243 1.091,-2.181c0,-0.519 -0.171,-0.981 -0.509,-1.404c-0.338,-0.415 -1.119,-1.003 -2.336,-1.76l-0.101,-0.067c-2.535,-1.579 -3.805,-3.121 -3.805,-4.626c0,-1.535 0.611,-2.784 1.839,-3.75c1.229,-0.966 2.84,-1.457 4.838,-1.457c0.818,0 1.636,0.086 2.474,0.244c0.83,0.157 1.693,0.399 2.588,0.718" style="fill:#1d2121;"/><path d="M2151.87,330.523l-0.793,2.665c-0.798,-0.293 -1.551,-0.516 -2.242,-0.657c-0.692,-0.146 -1.347,-0.214 -1.958,-0.214c-1.977,0 -3.633,0.698 -4.96,2.086c-1.322,1.389 -1.99,3.125 -1.99,5.194c0,1.709 0.472,3.08 1.408,4.116c0.936,1.042 2.19,1.554 3.752,1.554c0.541,0 1.143,-0.067 1.79,-0.203c0.66,-0.141 1.372,-0.34 2.153,-0.607l-0.375,2.958c-0.74,0.202 -1.493,0.34 -2.258,0.44c-0.761,0.098 -1.546,0.147 -2.356,0.147c-2.266,0 -4.101,-0.753 -5.489,-2.257c-1.395,-1.509 -2.095,-3.489 -2.095,-5.94c0,-1.396 0.264,-2.747 0.785,-4.051c0.525,-1.292 1.265,-2.419 2.234,-3.369c0.944,-0.936 2.034,-1.634 3.279,-2.08c1.237,-0.449 2.715,-0.673 4.411,-0.673c0.871,0 1.689,0.077 2.466,0.224c0.769,0.15 1.518,0.378 2.238,0.667" style="fill:#1d2121;"/><path d="M2155.76,321.405l3.267,0l-2.437,11.378c0.79,-1.01 1.677,-1.775 2.657,-2.301c0.985,-0.52 2.014,-0.777 3.133,-0.777c1.677,0 3.007,0.509 3.984,1.536c0.976,1.028 1.46,2.427 1.46,4.199c0,0.43 -0.032,0.898 -0.093,1.417c-0.065,0.514 -0.163,1.1 -0.293,1.759l-1.863,9.074l-3.333,0l2.047,-9.672c0.077,-0.39 0.138,-0.759 0.179,-1.123l0.057,-1.017c0,-1.107 -0.281,-1.957 -0.851,-2.558c-0.577,-0.597 -1.375,-0.901 -2.404,-0.901c-1.42,0 -2.653,0.582 -3.679,1.74c-1.041,1.149 -1.774,2.767 -2.197,4.842l-1.823,8.689l-3.292,0l5.481,-26.285" style="fill:#1d2121;"/><path d="M2172.03,330.027l3.308,0l-2.051,9.68c-0.085,0.35 -0.146,0.718 -0.187,1.094c-0.049,0.379 -0.069,0.753 -0.069,1.122c0,1.057 0.281,1.896 0.846,2.492c0.562,0.59 1.351,0.891 2.348,0.891c1.436,0 2.682,-0.582 3.723,-1.744c1.054,-1.17 1.799,-2.791 2.238,-4.875l1.815,-8.66l3.312,0l-3.739,17.663l-3.011,0l0.663,-2.99c-0.858,1.127 -1.803,1.973 -2.832,2.549c-1.026,0.582 -2.112,0.871 -3.28,0.871c-1.636,0 -2.941,-0.517 -3.91,-1.549c-0.969,-1.027 -1.449,-2.417 -1.449,-4.158c0,-0.521 0.025,-1.058 0.09,-1.612c0.065,-0.551 0.159,-1.114 0.277,-1.701l1.908,-9.073" style="fill:#1d2121;"/><path d="M2196.39,324.499l-1.159,5.463l4.455,0l-0.562,2.563l-4.398,0l-1.88,8.846l-0.175,0.991l-0.061,0.832c0,0.651 0.179,1.166 0.545,1.542c0.354,0.379 0.855,0.57 1.506,0.57l0.712,-0.09c0.28,-0.051 0.675,-0.138 1.147,-0.26l-0.557,2.631c-0.419,0.103 -0.798,0.183 -1.152,0.229l-1.005,0.084c-1.465,0 -2.575,-0.363 -3.345,-1.076c-0.768,-0.719 -1.147,-1.746 -1.147,-3.105l0.049,-0.952l0.171,-1.052l1.924,-9.19l-3.527,0l0.525,-2.563l3.535,0l0.887,-4.33l3.512,-1.133" style="fill:#1d2121;"/><path d="M2200.75,329.962l13.281,0l-0.594,2.781l-12.337,12.422l9.94,0l-0.512,2.525l-13.941,0l0.562,-2.748l12.365,-12.456l-9.273,0l0.509,-2.524" style="fill:#1d2121;"/><path d="M2040.58,239.044c-11.064,0 -19.642,4.394 -25.973,13.271c-0.911,1.263 -1.734,2.659 -2.47,4.16c2.584,4.649 3.304,10.749 3.304,17.324c0,5.198 -1.31,10.04 -3.552,14.119c3.996,6.594 11.259,10.324 21.151,10.324c10.343,0 19.16,-4.411 25.175,-12.633c4.166,-5.7 6.897,-13.92 6.897,-22.306c0,-15.063 -8.985,-24.259 -24.532,-24.259M2049.8,262.489c0,6.185 -2.002,12.781 -4.411,16.606c-3.442,5.375 -7.21,8.06 -11.861,8.06c-6.096,0 -10.103,-4.723 -10.103,-12.862c0,-6.103 1.924,-12.703 4.41,-16.77c3.207,-5.294 7.296,-7.979 11.788,-7.979c6.409,0 10.177,4.641 10.177,12.945M2088.45,265.175l-6.571,31.669l-14.274,0l6.657,-31.669l-8.582,0l2.165,-10.175l8.5,0l1.44,-6.595c1.925,-8.629 8.179,-13.432 17.961,-13.432c3.048,0 6.091,0.571 9.135,1.627l-2.722,9.361c-1.603,-0.728 -2.889,-1.056 -4.167,-1.056c-2.966,0 -5.371,1.872 -6.01,4.557l-1.367,5.538l13.908,0l1.44,-6.595c1.892,-8.637 8.179,-13.432 17.957,-13.432c3.052,0 6.095,0.571 9.139,1.627l-2.722,9.361c-1.603,-0.728 -2.885,-1.056 -4.171,-1.056c-2.966,0 -5.346,1.878 -6.01,4.557l-1.359,5.538l10.413,0l-2.08,10.175l-10.502,0l-6.575,31.669l-14.27,0l6.661,-31.669l-13.994,0M2136.04,237.335l-2.156,10.583l14.026,0l2.242,-10.583l-14.112,0M2132.35,255l-8.736,41.844l14.03,0l8.74,-41.844l-14.034,0M2185.85,256.547c-4.573,-1.875 -9.139,-2.77 -13.79,-2.77c-16.117,0 -26.135,10.179 -26.135,24.341c0,11.56 7.772,19.47 20.439,19.47c3.609,0 7.458,-0.571 11.788,-1.723l1.68,-11.072c-2.889,1.301 -5.534,1.954 -8.179,1.954c-6.571,0 -10.656,-3.99 -10.656,-10.258c0,-7.162 5.045,-12.047 12.748,-12.047c2.799,0 5.766,0.733 8.818,2.2l3.287,-10.095M2213.51,271.608l-16.761,0c1.607,-6.026 5.294,-9.523 9.705,-9.523c4.406,0 7.214,2.925 7.214,7.566c0,0.653 -0.077,1.302 -0.158,1.957M2224.5,279.669c0.638,-2.936 0.96,-5.622 0.96,-7.98c0,-11.48 -6.25,-18.078 -17.712,-18.078c-7.78,0 -14.035,2.284 -18.36,6.598c-4.492,4.476 -7.377,11.558 -7.377,18.396c0,11.887 7.699,19.637 20.679,19.637c5.216,0 10.347,-0.814 15.238,-2.377l1.599,-10.337c-4.732,2.118 -9.623,3.174 -14.026,3.174c-6.652,0 -10.021,-2.85 -10.579,-9.033l29.578,0" style="fill:#1d2121;"/><path d="M2302.61,221.602c10.611,-32.424 8.524,-57.502 -27.422,-100.489c-9.871,35.722 -42.968,47.94 -42.24,79.938c0.615,26.943 23.246,46.914 40.983,67.229c1.217,-8.204 2.954,-15.489 6.856,-23.308c3.923,-20.479 4.244,-40.895 2.458,-59.426c4.879,13.316 4.964,31.619 2.246,51.904c5.111,-8.091 10.307,-12.056 17.119,-15.848" style="fill:#b7da9b;"/><path d="M2228.76,330.843c1.111,-0.477 2.218,-0.971 3.316,-1.492c16.349,-7.715 29.667,-19.413 39.368,-33.437c-0.012,-7.216 0.289,-14.333 1.322,-21.315c-0.24,0.545 -0.488,1.082 -0.74,1.619c-5.928,23.905 -22.001,43.787 -43.266,54.624" style="fill:#b7da9b;"/><path d="M2272.34,328.389c-17.631,18.721 -41.663,31.171 -68.469,33.653c33.215,-3.703 61.206,-26.597 71.48,-57.49l0.334,-1.171c-0.399,-20.524 0.407,-42.723 10.355,-59.801c15.91,-27.3 42.937,-21.032 67.408,-46.168c-1.022,54.483 -11.914,91.436 -55.66,114.638c-5.371,2.852 -8.403,2.83 -12.948,7.761c16.94,-18.451 31.637,-30.916 40.707,-64.127c-11.683,23.031 -32.052,52.132 -53.207,72.705" style="fill:#64a86c;"/><path d="M1081.54,3054.53l0.069,-0.63c-7.047,-5.31 -12.841,-4.615 -17.098,2.099l3.837,0l0,-0.7c2.513,0 5.097,0.069 7.679,0.281l0,1.119c1.605,0.346 1.743,1.465 0.419,3.284l-0.419,0.211l-0.141,0.558c-18.843,22.09 -37.616,44.323 -56.39,66.553l-0.419,-0.208c-3.139,-4.614 -8.095,-7.34 -14.936,-8.179l-0.697,0l-10.468,0l-0.698,0c-8.724,0.77 -16.821,2.165 -24.428,4.195l-0.069,0.35c-1.327,0.489 -2.722,0.769 -4.118,1.046l-0.698,0.069c-24.426,7.414 -45.783,17.9 -64.207,31.393l0,1.395l0.07,0.7c0.278,1.469 0,2.377 -0.768,2.796c0.629,0.561 0.838,1.538 0.698,2.799l0,0.7c1.746,4.684 5.723,7.267 11.865,7.617l0.698,0.07c3.139,0.28 7.327,0.422 12.561,0.28l0,0.419c2.723,-0.838 5.933,-1.119 9.772,-0.769l0.698,0.07l0.698,-0.001l0,-0.695l8.374,0c1.745,-0.631 3.839,-0.912 6.282,-0.769l0.696,0.069l3.491,0l0,-0.7l6.281,0l0,-0.7l5.582,0c2.375,-0.7 5.166,-0.977 8.376,-0.769l0.698,0.069l2.094,0l0,-0.696c3.21,-0.281 6.559,-0.492 9.769,-0.7l0.698,0c4.887,-0.911 10.329,-1.399 16.053,-1.399l0.697,0c1.675,-0.42 3.49,-0.7 5.583,-0.7l0.698,0l0,-0.696l5.585,0c2.372,0 4.466,-0.211 6.28,-0.7l0.698,0l0,-0.7l11.865,0c1.046,0.281 1.534,0.069 1.744,-0.7l0.35,0l0,-0.699c4.046,0 7.747,-0.208 11.165,-0.7l0.698,0c2.024,-0.558 4.328,-0.77 6.981,-0.696l2.093,0l0,-0.7l5.583,0l0.14,-0.489c2.582,-1.611 0.209,-2.099 -7.119,-1.611l-0.698,0l-4.884,0l-0.141,0.35c-0.419,0.212 -0.838,0.35 -1.257,0.35l0,0.281c-2.372,0.281 -4.606,0.419 -6.978,0.419l0,0.281c-3.49,0.277 -6.979,0.419 -10.468,0.419l-0.698,0l-4.887,0l-0.138,0.419c-1.396,0.977 -3.42,1.257 -6.142,0.977l0,0.28c-1.884,0.281 -3.768,0.42 -5.583,0.42l-0.698,0c-1.467,0.28 -2.443,0.069 -2.791,-0.7c0.417,-0.489 0.976,-0.908 1.465,-1.258l0.628,-0.138l0.698,0l0,-0.7c4.187,-3.284 6.7,-8.179 7.676,-14.681l0,-0.7l0,-0.7l0,-8.386l0,-0.7l0,-0.699c1.327,-1.75 2.654,-3.427 4.049,-5.103l0.138,-0.492l0,-0.696l0,-0.7c1.048,-1.119 2.025,-2.238 3.001,-3.357l0.491,-0.138c4.744,-5.314 9.281,-10.767 13.818,-16.219l0.138,-0.562l0,-0.696l0,-0.7c1.048,-0.419 1.746,-1.119 2.373,-2.03l0.419,-0.07c0.697,-0.487 1.326,-1.045 1.955,-1.607l0.138,-0.488l0,-0.7l0,-0.7c1.048,-0.419 1.746,-1.119 2.374,-2.026l0.42,-0.069l0,-0.7c0.976,-0.7 1.884,-1.4 2.86,-2.026l0.629,-0.069c13.887,-10.629 22.89,-23.702 27.148,-39.222M936.445,3139.96l0.698,-0.069l-0.14,-0.7l-0.558,-0.7c1.396,-0.488 2.792,-0.907 4.188,-1.326l0.697,-0.069l0,-0.7c1.048,-0.35 2.094,-0.769 2.861,-1.258l0.628,-0.142c1.677,-0.488 3.282,-0.908 4.887,-1.396l0.696,0l0,-0.699c2.095,-0.489 4.189,-0.908 6.283,-1.4l0.697,0l0.768,-0.558l0.628,-0.138l0,-0.7c1.396,-0.281 2.792,-0.492 4.187,-0.7l0.698,0c1.674,0 2.932,-0.35 4.049,-0.981l0.138,-0.418l0,-0.7c1.326,-0.558 2.932,-0.765 4.887,-0.696l0.698,0c7.047,-1.119 14.027,-2.238 20.937,-3.496l0.698,0l0,-0.699c2.791,0 5.582,0.069 8.374,0.28l0,0.419c4.884,1.327 8.723,3.846 11.376,7.479l0.489,0.212c-3.909,6.498 -7.398,13.493 -10.399,20.971l-0.071,0.7l0,5.591l0.071,0.631c1.325,3.145 -0.35,4.403 -4.955,3.564l0,0.281c-1.885,0.281 -3.768,0.419 -5.583,0.419l-0.698,0l-0.14,0.419c-1.396,0.981 -3.42,1.258 -6.143,0.981l0,0.276c-5.651,0.42 -11.234,0.77 -16.748,1.12l-0.698,0l-1.397,0l0,0.28c-4.466,0.42 -7.955,0.558 -10.468,0.42l0,0.281c-3.07,0.276 -6.002,0.418 -9.072,0.418l-0.698,0l-4.886,0l-0.069,0.35c-0.908,0.208 -1.746,0.35 -2.723,0.35l0,0.277c-2.791,0.281 -5.582,0.419 -8.374,0.419l-0.698,0l-5.584,0l-0.698,0c-2.441,0.281 -4.256,0.073 -5.583,-0.696l-0.698,0c-7.816,-0.142 -13.189,-2.657 -16.052,-7.69c9.282,-8.671 20.449,-15.381 33.5,-20.207M1013.91,3143.39l0,-0.7l0,-0.695c2.442,-3.988 3.49,-3.707 3.139,0.626l-0.347,0.069l-0.07,0.631c-2.303,7.341 -4.606,10.136 -6.911,8.459c1.398,-2.588 2.794,-5.171 4.049,-7.759l0.14,-0.631" style="fill:#3269b3;"/><path d="M936.445,3138.49l0.558,0.7l0.14,0.7c1.605,-0.557 3.07,-1.188 4.256,-1.957l0.629,-0.138l-0.138,-0.562l-0.56,-0.138l-0.697,0.069c-1.396,0.419 -2.792,0.838 -4.188,1.326" style="fill:#3269b3;"/><path d="M944.819,3135.7l0,-0.7l-0.628,0.142c-0.767,0.489 -1.813,0.908 -2.861,1.258l0,0.7l0.56,0.138l0.138,0.562c0.977,-0.281 1.674,-0.7 2.234,-1.262l0.557,-0.138l0,-0.7" style="fill:#3269b3;"/><path d="M944.819,3134.99l0,1.4c2.165,-0.7 4.189,-1.469 6.143,-2.446l0.138,-0.35l-0.698,0l-0.696,0c-1.605,0.489 -3.21,0.908 -4.887,1.396" style="fill:#3269b3;"/><path d="M958.778,3130.1l0,0.7c1.746,-0.143 3.349,-0.492 4.816,-1.05l0.069,-0.35l-0.698,0c-1.395,0.208 -2.791,0.419 -4.187,0.7" style="fill:#3269b3;"/><path d="M957.313,3131.85l0.07,-0.35l-0.698,0c-2.094,0.492 -4.188,0.911 -6.281,1.4l0,0.699l0.698,0c2.093,-0.488 4.187,-1.119 6.211,-1.749" style="fill:#3269b3;"/><path d="M925.976,3167.86l0,0.696l6.282,0l0,-0.696l-0.698,0l-5.584,0" style="fill:#3269b3;"/><path d="M925.976,3168.55l0,-0.696l-0.698,0l-5.583,0c1.327,0.769 3.142,0.977 5.583,0.696l0.698,0" style="fill:#3269b3;"/><path d="M932.258,3167.86l0,0.696c2.792,0 5.583,-0.138 8.375,-0.419l0,-0.277l-0.698,0l-2.094,0l-0.698,0l-4.885,0" style="fill:#3269b3;"/><path d="M943.424,3167.16l-0.698,0l-4.885,0l0,0.7l2.792,0c0.976,0 1.814,-0.142 2.722,-0.35l0.069,-0.35" style="fill:#3269b3;"/><path d="M958.08,3166.74l0,-0.281l-0.697,0l-0.698,0l-7.677,0l0,0.699c3.07,0 6.002,-0.142 9.072,-0.418" style="fill:#3269b3;"/><path d="M957.383,3165.76l0,0.7l0.697,0c2.513,0.138 6.002,0 10.468,-0.419l0,-0.281l-0.698,0l-3.489,0l-0.698,0l-6.28,0" style="fill:#3269b3;"/><path d="M995.07,3122.41l0,0.699l8.374,0l0,-0.419c-2.792,-0.211 -5.583,-0.28 -8.374,-0.28" style="fill:#3269b3;"/><path d="M973.435,3126.61l-0.698,0c-1.955,-0.069 -3.561,0.138 -4.887,0.696l0,0.7c1.676,-0.42 3.491,-0.77 5.585,-1.12l0,-0.276" style="fill:#3269b3;"/><path d="M969.945,3165.76l0.698,0l0,-0.7l-0.698,0l-5.584,0l0,0.7l5.584,0" style="fill:#3269b3;"/><path d="M970.643,3165.06l0,0.7c5.514,-0.35 11.097,-0.7 16.748,-1.119l0,-0.277l-0.698,0l-4.186,0l-0.698,0c-3.489,0.419 -7.257,0.627 -11.166,0.696" style="fill:#3269b3;"/><path d="M986.693,3164.36l0.698,0c2.723,0.277 4.747,0 6.143,-0.981l0.14,-0.419l-0.698,0c-2.932,0.7 -6.421,0.977 -10.469,0.7l0,0.7l4.186,0" style="fill:#3269b3;"/><path d="M1004.84,3157.37l0,-4.891l-0.698,0c0,1.815 0.072,3.634 0.35,5.522l0.348,0.069l0,-0.7" style="fill:#3269b3;"/><path d="M999.955,3162.54l0,-0.281l-0.698,0l-4.885,0l0,0.7c1.815,0 3.698,-0.142 5.583,-0.419" style="fill:#3269b3;"/><path d="M1016.63,3141.99l0.07,0.695l0.347,-0.069c0.351,-4.333 -0.697,-4.614 -3.139,-0.626l0,1.395c1.605,-2.026 2.511,-2.515 2.722,-1.395" style="fill:#3269b3;"/><path d="M1076.03,3060.19l0.419,-0.211c1.324,-1.819 1.186,-2.938 -0.419,-3.284l0,3.495" style="fill:#3269b3;"/><path d="M1076.03,3056l0,-0.419c-2.582,-0.212 -5.166,-0.281 -7.679,-0.281l0,0.7l7.679,0" style="fill:#3269b3;"/><path d="M1152.1,3152.47l0,0.7l5.583,0l0,-0.423c-1.884,-0.207 -3.77,-0.277 -5.583,-0.277" style="fill:#3269b3;"/><path d="M1151.4,3153.18l0,0.277c-2.584,0.281 -5.166,0.419 -7.678,0.419l-0.698,0l-0.698,0l0,0.281c-4.606,0.281 -9.35,0.419 -13.959,0.419c6.352,0.838 13.821,2.099 22.264,3.776l0.069,0.419c8.097,2.027 10.539,0.208 7.399,-5.452l-0.418,-0.139l-0.698,0l-4.885,0l-0.698,0" style="fill:#3269b3;"/><path d="M1152.1,3155.55l0,-0.281c6.63,1.188 6.63,1.257 0,0.281" style="fill:#3269b3;"/><path d="M1152.1,3155.27l0,0.281c6.63,0.976 6.63,0.907 0,-0.281" style="fill:#3269b3;"/><path d="M1151.4,3153.45l0,-0.277l-0.7,0l-6.978,0l0,0.696c2.512,0 5.094,-0.138 7.678,-0.419" style="fill:#3269b3;"/><path d="M1134.65,3153.87l-0.698,0l-18.145,0l0,0.7l12.56,0c4.609,0 9.353,-0.138 13.959,-0.419l0,-0.281l-0.698,0l-6.978,0" style="fill:#3269b3;"/><path d="M1134.65,3153.18l0,0.696l9.072,0l0,-0.696l-0.698,0l-8.374,0" style="fill:#3269b3;"/><path d="M1136.75,3158.35l0,-0.281l-0.698,0l-1.396,0l-0.698,0c-2.165,0.281 -3.839,0.069 -4.887,-0.7l-0.698,0l-2.791,0l0,0.7c3.141,0.769 6.84,0.908 11.168,0.281" style="fill:#3269b3;"/><path d="M1134.65,3157.65l0,0.419l2.791,0c1.465,-0.631 3.351,-0.769 5.514,-0.419l0.069,0.419c2.374,0 4.606,0.069 6.978,0.281l0,0.419l0.698,0l-0.069,-0.419c-8.443,-1.677 -15.912,-2.938 -22.264,-3.776l-0.698,0l-11.862,0l-0.698,0l-4.885,0l-0.698,0l-4.887,0l-0.698,0l-2.093,0l-0.069,0.35c-0.908,0.212 -1.746,0.35 -2.723,0.35l-0.14,0.488c-2.232,1.607 -3.768,1.676 -4.744,0.212c0.697,0 1.395,-0.143 2.024,-0.35l0.069,-0.35l-0.698,0l-3.489,0l-0.7,0l-6.281,0l-0.697,0l-1.396,0l0,0.281c-2.093,0.276 -4.187,0.419 -6.28,0.419l-0.698,0l-0.141,0.488c-0.348,0.35 -0.767,0.631 -1.255,0.907l0,0.7c2.513,0 5.094,0.069 7.676,0.281l0,0.419l4.885,0l0,-0.7c7.19,-0.069 13.261,-0.069 18.146,0l0.697,0l0,-0.7l0.698,0c2.932,0.143 6.981,0.143 11.866,0l10.467,0c1.815,0 3.699,0.069 5.585,0.281" style="fill:#3269b3;"/><path d="M1134.65,3158.07l0,-0.419c-1.886,-0.207 -3.77,-0.281 -5.585,-0.281c1.048,0.769 2.722,0.981 4.887,0.7l0.698,0" style="fill:#3269b3;"/><path d="M1143.03,3158.07l-0.069,-0.419c-2.163,-0.35 -4.049,-0.207 -5.514,0.419c1.046,0.769 2.723,0.981 4.885,0.7l0.698,0l0,-0.7" style="fill:#3269b3;"/><path d="M1149.31,3158.77l0.698,0l0,-0.419c-2.372,-0.212 -4.604,-0.281 -6.978,-0.281l0,0.7l6.28,0" style="fill:#3269b3;"/><path d="M1092.08,3154.57l-0.7,0l-6.281,0l0,0.7l6.981,0l0,-0.7" style="fill:#3269b3;"/><path d="M1092.08,3154.57l0,0.7l6.978,0c0.977,0 1.815,-0.138 2.723,-0.35l0.069,-0.35l-0.698,0l-9.072,0" style="fill:#3269b3;"/><path d="M1096.2,3155.62c-0.629,0.207 -1.327,0.35 -2.024,0.35c0.976,1.469 2.51,1.395 4.744,-0.212l0.14,-0.488l-0.697,0l-2.094,0l-0.069,0.35" style="fill:#3269b3;"/><path d="M1076.03,3155.97l0.698,0l0,-0.7l-0.698,0l-5.583,0l0,0.7l5.583,0" style="fill:#3269b3;"/><path d="M1076.72,3155.27l0,0.7c2.093,0 4.187,-0.143 6.28,-0.419l0,-0.281l-0.698,0l-5.582,0" style="fill:#3269b3;"/><path d="M1076.03,3155.97l-0.698,0l-4.885,0l-0.7,0l-2.791,0l0,0.699c0.838,1.396 2.791,2.027 5.585,1.677l0,0.419l1.395,0l0,-0.7l0.698,0l0,-0.7c0.488,-0.276 0.907,-0.557 1.255,-0.907l0.141,-0.488" style="fill:#3269b3;"/><path d="M1087.19,3158.77l-0.698,0l-1.396,0c1.467,0.769 3.561,0.907 6.212,0.281l0.069,-0.281l-0.698,0l-3.489,0" style="fill:#3269b3;"/><path d="M1083.7,3158.77l-0.698,0l-0.698,0l-0.698,0.069c-1.186,0.42 -2.372,0.42 -3.489,-0.069l0,0.7c1.396,0.557 3.28,0.488 5.514,-0.35l0.069,-0.35" style="fill:#3269b3;"/><path d="M1076.72,3159.47l0.697,0l-0.069,-0.419c-1.117,-0.212 -2.303,-0.281 -3.42,-0.281l-0.698,0l-0.697,0l-0.698,0.069c-0.42,0.212 -0.908,0.35 -1.396,0.631l0,0.7c2.372,0 4.466,-0.212 6.281,-0.7" style="fill:#3269b3;"/><path d="M1077.42,3159.47l0.697,0l0,-0.7c1.117,0.489 2.303,0.489 3.489,0.069l0.698,-0.069l0,-0.419c-2.582,-0.212 -5.163,-0.281 -7.676,-0.281l-0.698,0l0,0.7c1.117,0 2.303,0.069 3.42,0.281l0.069,0.419" style="fill:#3269b3;"/><path d="M1090.68,3158.77l0.698,0c5.166,0.558 9.981,0.489 14.587,-0.419l0.069,-0.281l-0.697,0c-4.885,-0.069 -10.956,-0.069 -18.146,0l0,0.7l3.489,0" style="fill:#3269b3;"/><path d="M1119.99,3157.37l-0.697,0l0,0.281c-3.28,0.281 -6.56,0.419 -9.77,0.419l0,0.7c5.163,0 10.188,-0.138 15.352,-0.419l0,-0.281l-0.698,0c-2.024,0.281 -3.42,0.069 -4.187,-0.7" style="fill:#3269b3;"/><path d="M1119.3,3157.37l-0.698,0c-4.885,0.143 -8.934,0.143 -11.866,0c-0.138,1.331 0.56,1.819 2.094,1.4l0.7,0l0,-0.7c3.21,0 6.49,-0.138 9.77,-0.419l0,-0.281" style="fill:#3269b3;"/><path d="M1119.99,3157.37c0.767,0.769 2.163,0.981 4.187,0.7l1.396,0l0,-0.7l-0.698,0l-4.885,0" style="fill:#3269b3;"/><path d="M1110.23,3153.87l-0.698,0l-4.887,0l0,0.7l5.585,0l0,-0.7" style="fill:#3269b3;"/><path d="M1110.23,3153.87l0,0.7l5.582,0l0,-0.7l-0.697,0l-4.885,0" style="fill:#3269b3;"/><path d="M1067.65,3056l-2.791,0c1.746,0.769 4.049,0.908 6.909,0.277l0.072,-0.277l-0.698,0l-2.794,0l-0.698,0" style="fill:#3269b3;"/><path d="M1043.22,3104.24l0,1.395c1.258,-0.696 2.094,-1.607 2.654,-2.865l0.138,-0.631l-0.419,0.07c-0.627,0.911 -1.325,1.611 -2.373,2.03" style="fill:#3269b3;"/><path d="M1054.25,3094.24l0.141,-0.488l-0.629,0.069c-0.976,0.626 -1.884,1.326 -2.861,2.026l0.001,1.4c1.115,-0.981 2.232,-1.957 3.348,-3.007" style="fill:#3269b3;"/><path d="M1050.9,3097.25l0,-0.7l-0.42,0.069c-0.628,0.907 -1.326,1.607 -2.374,2.026l0,1.4c0.979,-0.7 1.815,-1.469 2.653,-2.307l0.141,-0.488" style="fill:#3269b3;"/><path d="M922.487,3172.75l1.395,0l0,-0.419c-5.234,0.142 -9.422,0 -12.561,-0.28c2.651,1.33 6.14,1.818 10.468,1.399l0.698,0l0,-0.7" style="fill:#3269b3;"/><path d="M923.185,3172.75l-0.698,0l0,0.7l2.791,0l0,-0.7l9.074,0l0,-0.699l-0.698,-0.07c-3.839,-0.35 -7.049,-0.069 -9.772,0.769l-0.697,0" style="fill:#3269b3;"/><path d="M925.278,3172.75l0,0.7c1.815,0 3.699,-0.138 5.585,-0.419l0,-0.281l-0.7,0l-4.885,0" style="fill:#3269b3;"/><path d="M935.05,3172.05l8.374,-0.001l0,-0.695l-0.698,0l-7.676,0l0,0.696" style="fill:#3269b3;"/><path d="M940.633,3172.05l-5.583,-0.001l-0.698,0.001l0,0.699c2.372,0 4.606,-0.138 6.978,-0.419l0,-0.281l-0.697,0" style="fill:#3269b3;"/><path d="M943.424,3171.35l0,0.696c1.814,-0.558 3.908,-0.77 6.282,-0.696l0.696,0l0,-0.7l-0.696,-0.07c-2.443,-0.142 -4.537,0.139 -6.282,0.77" style="fill:#3269b3;"/><path d="M953.195,3170.65l-2.793,0l0,0.7c2.096,0 4.189,-0.143 6.283,-0.419l0,-0.281l-0.698,0l-2.094,0l-0.698,0" style="fill:#3269b3;"/><path d="M953.893,3169.95l0,0.7l5.583,0l0,-0.7l-0.698,0l-4.885,0" style="fill:#3269b3;"/><path d="M960.174,3169.95l-0.698,0l0,0.7c1.815,0 3.699,-0.143 5.583,-0.419l0,-0.281l-0.698,0l-4.187,0" style="fill:#3269b3;"/><path d="M960.174,3169.25l0,0.7l5.582,0l0,-0.7l-0.697,0l-4.885,0" style="fill:#3269b3;"/><path d="M898.758,3157.37l-0.35,0c0.072,0.981 -0.278,1.4 -1.045,1.4c-0.07,2.238 0.209,3.984 0.976,5.384l0.419,0.211l0,-0.7c0.14,-1.261 -0.069,-2.238 -0.698,-2.799c0.768,-0.419 1.046,-1.327 0.768,-2.796l-0.07,-0.7" style="fill:#3269b3;"/><path d="M1029.27,3122.41l-0.491,0.138c-0.976,1.119 -1.953,2.238 -3.001,3.357l0,1.396c1.606,-0.977 2.723,-2.446 3.42,-4.265l0.072,-0.626" style="fill:#3269b3;"/><path d="M1041.83,3158.07l-0.698,0l-4.885,0l0,0.7l5.583,0l0,-0.7" style="fill:#3269b3;"/><path d="M1045.32,3158.07l-0.698,0l-2.791,0l0,0.7l0.698,0c2.372,0 4.606,-0.138 6.978,-0.419l0,-0.281l-0.698,0l-3.489,0" style="fill:#3269b3;"/><path d="M1045.32,3157.37l0,0.7l4.187,0c0.419,0 0.838,-0.138 1.257,-0.35l0.141,-0.35l-0.698,0l-4.887,0" style="fill:#3269b3;"/><path d="M1021.59,3143.39l0.35,-0.069c0.627,-3.634 0.417,-6.641 -0.35,-9.017l0,9.086" style="fill:#3269b3;"/><path d="M1032.06,3158.77l0,0.7c3.489,0 6.978,-0.142 10.468,-0.419l0,-0.281l-0.698,0l-0.698,0l-4.885,0l-0.698,0l-3.489,0" style="fill:#3269b3;"/><path d="M1028.57,3162.96l-0.7,0l-4.885,0l0,0.7l5.585,0l0,-0.7" style="fill:#3269b3;"/><path d="M1026.34,3159.89l0.138,-0.419l-0.698,0.069c-1.674,0.562 -3.837,0.769 -6.28,0.631l0,0.696l0.698,0c2.722,0.28 4.746,0 6.142,-0.977" style="fill:#3269b3;"/><path d="M1027.87,3163.94l0,-0.281l-0.698,0l-4.187,0l-0.698,0c-1.814,0.489 -3.908,0.7 -6.28,0.7l0,0.696c3.837,-0.419 7.745,-0.769 11.863,-1.115" style="fill:#3269b3;"/><path d="M1028.57,3162.96l0,0.7c1.813,0 3.698,-0.142 5.583,-0.419l0,-0.281l-0.698,0l-4.885,0" style="fill:#3269b3;"/><path d="M1020.19,3161.14l0,-0.277l-0.698,0l-0.698,0l-4.187,0l0,0.696c1.815,0 3.699,-0.139 5.583,-0.419" style="fill:#3269b3;"/><path d="M1019.5,3160.17l-0.698,0c-2.163,0.277 -3.839,0.069 -4.885,-0.7l-0.698,0l-0.14,0.488l-0.557,0.212c0,0.696 0.417,0.976 1.395,0.696l5.583,0l0,-0.696" style="fill:#3269b3;"/><path d="M1046.71,3162.54l0,-0.281l-0.697,0l-5.583,0l0,0.7c2.094,0 4.187,-0.142 6.28,-0.419" style="fill:#3269b3;"/><path d="M1046.71,3162.26l0,-0.699c0.698,0 1.396,-0.139 2.025,-0.35l0.069,-0.35l-0.698,0c-3.418,0.492 -7.119,0.7 -11.165,0.7l0,0.699l9.769,0" style="fill:#3269b3;"/><path d="M1046.71,3161.56l0,0.699c2.165,0.281 3.84,0.139 4.957,-0.557l0.628,-0.142l0,-0.7c1.396,0 2.792,-0.139 4.116,-0.419l0.071,-0.277l-0.697,0c-2.653,-0.074 -4.957,0.138 -6.981,0.696l-0.069,0.35c-0.629,0.211 -1.327,0.35 -2.025,0.35" style="fill:#3269b3;"/><path d="M1040.43,3162.96l0,-0.7l-0.698,0l-2.791,0l-0.35,0c-0.21,0.769 -0.698,0.981 -1.744,0.7c1.046,0.558 2.723,0.558 4.885,0l0.698,0" style="fill:#3269b3;"/><path d="M1061.37,3156.67l5.583,0l0,-0.699l-0.698,0l-4.885,0l0,0.699" style="fill:#3269b3;"/><path d="M1066.26,3156.67l-4.885,0l-0.698,0l-4.187,0l0,0.696c7.328,-0.488 9.701,0 7.119,1.611l-0.14,0.489l0,0.7c2.093,-1.119 4.258,-1.188 6.351,-0.212l0.629,0.212l0,-0.7c0.488,-0.281 0.976,-0.419 1.396,-0.631l0.698,-0.069l0,-0.419c-2.794,0.35 -4.747,-0.281 -5.585,-1.677l-0.698,0" style="fill:#3269b3;"/><path d="M1056.49,3160.17l-0.071,0.277c-1.324,0.28 -2.72,0.419 -4.116,0.419l0,0.7c2.861,-0.139 5.652,-0.35 8.374,-0.7l0.698,0l-0.069,-0.419c-1.117,-0.208 -2.303,-0.277 -3.42,-0.277l-0.698,0l-0.698,0" style="fill:#3269b3;"/><path d="M1057.88,3159.47l0,0.7c1.117,0 2.303,0.069 3.42,0.277l0.069,0.419l1.396,0l0,-0.696l0.698,0l0,-0.7l-0.698,0l-4.885,0" style="fill:#3269b3;"/><path d="M1070.44,3160.17l-0.629,-0.212c-2.093,-0.977 -4.258,-0.907 -6.351,0.212l-0.698,0l0,0.696c2.512,0 5.094,-0.139 7.678,-0.419l0,-0.277" style="fill:#3269b3;"/><path d="M995.07,3117.52l0,0.699l6.978,0l0,-0.419c-2.372,-0.211 -4.606,-0.28 -6.978,-0.28" style="fill:#3269b3;"/><path d="M992.976,3118.22l0,0.7l11.165,0l-0.069,-0.419c-0.628,-0.211 -1.326,-0.281 -2.024,-0.281l-0.698,0l-6.28,0l-0.698,0l-1.396,0" style="fill:#3269b3;"/><path d="M967.781,3123.46l0.071,-0.35l-0.698,-0.073c-1.536,-0.138 -2.724,0.073 -3.491,0.769l0,0.7c1.396,-0.276 2.793,-0.557 4.118,-1.046" style="fill:#3269b3;"/><path d="M965.756,3169.25l0,0.7c2.932,-0.139 5.724,-0.281 8.377,-0.7l0.697,0l0,-0.7l-0.697,-0.069c-3.211,-0.208 -6.002,0.069 -8.377,0.769" style="fill:#3269b3;"/><path d="M976.226,3168.55l-1.396,0l0,0.7c1.815,0 3.699,-0.138 5.583,-0.419l0,-0.281l-0.698,0l-2.791,0l-0.698,0" style="fill:#3269b3;"/><path d="M987.391,3167.16l-0.698,0c-3.21,0.208 -6.559,0.419 -9.769,0.7l0,0.696l5.583,0l0,-0.696l4.884,0l0,-0.7" style="fill:#3269b3;"/><path d="M982.507,3167.86l0,0.696c2.093,0 4.186,-0.138 6.28,-0.419l0,-0.277l-0.698,0l-0.698,0l-0.698,0l-4.186,0" style="fill:#3269b3;"/><path d="M988.089,3167.86l3.491,0l0,-0.7l5.583,0c2.513,-0.211 4.606,-0.418 6.281,-0.699l0.697,0l0,-0.7l-0.697,0c-5.724,0 -11.166,0.488 -16.053,1.399l0,0.7l0.698,0" style="fill:#3269b3;"/><path d="M1004.14,3165.76l0,0.7c2.234,0.138 4.118,-0.069 5.583,-0.631l0.698,-0.069l0,-0.7l-0.698,0c-2.093,0 -3.908,0.281 -5.583,0.7" style="fill:#3269b3;"/><path d="M997.163,3167.16l-0.698,0l-4.885,0l0,0.7c1.813,0 3.699,-0.142 5.583,-0.419l0,-0.281" style="fill:#3269b3;"/><path d="M1012.52,3160.17l0.557,-0.212l0.14,-0.488l-0.628,0.138c-0.489,0.35 -1.048,0.769 -1.465,1.258c0.348,0.769 1.324,0.98 2.791,0.7l0.698,0l0,-0.7l-0.698,0c-0.978,0.28 -1.395,0 -1.395,-0.696" style="fill:#3269b3;"/><path d="M1016.01,3165.06l0,-0.696l-0.698,0l-4.887,0l0,0.696l5.585,0" style="fill:#3269b3;"/><path d="M1016.01,3165.06l-0.698,0l-4.887,0l0,0.7c1.815,0 3.701,-0.139 5.585,-0.419l0,-0.281" style="fill:#3269b3;"/><path d="M758.479,3011.26l0.139,-0.492c3.21,-2.096 4.119,-4.264 2.652,-6.498c-14.585,3.076 -28.125,9.505 -40.547,19.153c-26.103,20.414 -53.949,38.94 -83.68,55.647l-0.14,0.424c-2.024,1.607 -4.537,2.583 -7.536,3.076l-0.14,0.346c-1.257,0.423 -2.444,1.049 -3.351,1.749l-0.138,0.35c-1.467,0.558 -2.792,1.05 -4.049,1.746l-0.14,0.35c-1.115,0.631 -2.442,0.7 -4.047,0.35l0,0.7l-0.14,0.557c-1.256,1.542 -3.07,2.519 -5.443,2.938l-0.14,0.419c-1.396,1.257 -3.211,2.027 -5.444,2.376c-19.053,13.912 -38.943,27.128 -59.461,39.641c-28.754,17.618 -57.369,35.306 -85.703,53.34c5.792,0.842 11.236,-0.907 16.19,-5.452l0.56,-0.138l-0.141,-0.631l-0.557,-0.769c1.534,-1.05 2.722,-1.327 3.558,-0.908l0.629,0.208l0,-0.696l0,-0.7c1.395,-0.7 2.653,-1.607 3.63,-2.657l0.557,-0.138c0.978,-0.493 1.886,-0.912 2.791,-1.331l0.698,-0.069l0,-0.7c1.048,-0.838 2.234,-1.538 3.491,-2.026l0.698,-0.069l0,-0.7c2.651,-1.119 4.954,-2.519 7.119,-4.057l0.557,-0.138l0,-0.7c0.977,-0.489 1.884,-0.908 2.791,-1.327l0.698,-0.069l0,-0.7c1.956,-0.142 3.63,-1.05 5.095,-2.657l0.488,-0.142l0,-0.696l1.398,0l0,-0.7c0.907,-0.281 1.674,-0.7 2.232,-1.257l0.559,-0.143l0,-0.7c1.255,-0.557 2.513,-1.257 3.63,-1.957l0.557,-0.138c0.698,-0.489 1.396,-0.908 2.163,-1.258l0.628,-0.142l0,-0.696c1.048,-0.35 1.465,-0.073 1.396,0.696l0,0.7c0.489,0 0.839,-0.139 1.258,-0.35l0.138,-0.35l-0.069,-0.419c-0.698,-0.138 -0.908,-0.7 -0.629,-1.677l0.698,0c4.258,-2.518 8.514,-5.033 12.701,-7.552l0.56,-0.138l0,-0.7c1.953,-0.907 3.839,-1.819 5.654,-2.657l0.626,-0.138l0,-0.7c0.908,-0.488 1.884,-0.908 2.792,-1.327l0.697,-0.073l0,-0.695c4.328,-2.658 8.865,-5.176 13.33,-7.553l0.629,-0.138l0,-0.7c0.839,-0.212 1.327,-0.562 1.675,-1.257l0.419,-0.142l0,-0.7l1.395,0c3.98,-3.003 4.678,-2.796 2.234,0.769l-0.14,0.63l0,0.7c-0.069,1.327 -0.557,2.238 -1.396,2.796l-0.069,0.7c-1.465,6.29 -1.186,11.397 0.767,15.38l-0.138,0.489c-14.099,12.443 -28.266,24.816 -42.434,37.263l0,0.7l0.141,0.346c1.464,0.631 1.255,1.469 -0.839,2.45l0,0.699l0.141,0.489l0.557,0.207c4.328,-3.214 8.374,-6.498 12.423,-9.997l0.14,-0.489l0,-0.418c-1.536,0.838 -2.653,0.907 -3.489,0.418c5.792,-4.752 11.654,-9.297 17.586,-13.842l0.56,-0.138l0,-0.7c2.162,-1.607 4.046,-3.357 5.792,-5.453l0.488,-0.138c0.698,-0.493 1.256,-1.119 1.675,-1.957l0.419,-0.143c2.303,-1.607 4.465,-3.495 6.421,-5.452l0.557,-0.139l0,-0.7c1.257,-1.468 2.653,-1.399 4.049,0.139l0.14,0.561c6.002,6.991 15.074,10.975 27.218,11.813l0.698,0.073c2.093,0 4.186,0.069 6.211,0.276l0.069,0.42l0.698,0l0,-0.696l8.376,0c1.675,-0.7 3.768,-0.911 6.28,-0.769l0.698,0.069c1.954,0.277 3.351,0.139 4.328,-0.561l0.557,-0.139l0,-0.7c0.908,-0.699 2.303,-0.907 4.189,-0.769l0.698,0.07l0.558,-0.77l0.14,-0.626l0,-0.7l0,-0.7l1.396,0l-0.071,-0.419c-1.535,-0.212 -3.211,-0.281 -4.816,-0.281l-0.627,0.069c-2.234,0.631 -4.537,0.981 -7.05,1.331l-0.069,0.281c-2.024,0.276 -4.117,0.419 -6.211,0.419l-0.698,0c-18.007,0.976 -31.266,-2.8 -39.78,-11.186l0,-0.419c-1.258,0.069 -1.677,-0.492 -1.396,-1.681c5.023,-3.633 9.7,-7.548 14.097,-11.743l0.557,-0.142c1.117,-0.558 1.886,-1.465 2.375,-2.653l0.417,-0.142c0.698,-0.489 1.467,-0.908 2.164,-1.258l0.629,-0.138l0,-0.7c1.884,-1.607 3.768,-3.219 5.721,-4.757l0.56,-0.138l0,-0.7c1.464,-1.119 2.932,-2.238 4.327,-3.353l0.557,-0.142l0,-0.7c4.885,-4.684 9.841,-8.109 14.726,-10.417l0.629,-0.069l0.767,-0.626l0.628,-0.074l-0.14,-0.696c-0.138,-0.492 -0.348,-0.98 -0.557,-1.399c1.255,-1.4 2.651,-2.519 4.258,-3.426l0.626,-0.07l0,-0.7c4.747,-4.614 9.632,-7.759 14.657,-9.509l0,0.424c6.352,-5.038 12.842,-9.998 19.401,-14.962l0.14,-0.42l0,-0.418c-0.976,0.069 -1.466,-0.281 -1.395,-0.981c2.86,-2.938 5.932,-4.476 9.072,-4.614l0,0.419c7.607,-5.734 17.169,-9.436 28.615,-11.186l0.698,0l0,-0.7l7.676,0l0,-0.696c1.815,0 3.699,0.069 5.514,0.277l0.069,0.419c2.374,0 4.606,0.073 6.909,0.281l0.071,0.419l0.698,0c9.143,1.75 14.516,7.34 16.052,16.78l-0.14,0.627c-6.559,15.943 -17.448,27.617 -32.662,35.026l0,1.4c0.279,0.419 0.419,0.907 0.628,1.396l0.07,0.7c11.236,-7.479 21.496,-15.8 30.847,-25.029l0.558,-0.138l0,-0.7l0,-2.096c0.699,-0.492 1.257,-1.119 1.676,-2.03l0.419,-0.069l0.069,-0.7c1.884,-7.341 1.117,-14.12 -2.164,-20.272l-0.418,-0.212c-4.048,-5.521 -10.679,-8.528 -19.82,-8.878l-0.698,0l-8.376,0l-0.698,0l-2.093,0l0,0.7l-0.069,0.28c-1.746,0.42 -3.351,0.7 -4.816,1.12l-0.698,0l-2.093,0l-0.071,0.276c-1.885,0.212 -3.49,0.561 -4.816,1.119l-0.698,0l-0.139,0.419c-1.116,0.631 -2.374,0.981 -4.048,0.981l-0.488,0.138c-0.839,0.981 -1.606,0.912 -2.304,-0.138c10.539,-8.81 21.914,-16.781 34.058,-24.048l0.141,-0.419l-0.141,-0.7l-0.557,-0.7c3.139,-2.026 6.211,-4.057 9.141,-6.152l0.628,-0.139c4.118,-2.726 8.305,-5.245 12.633,-7.621l0.628,-0.069l0,-0.7c1.046,-0.63 2.025,-1.257 2.932,-1.957l0.557,-0.143c3.768,-3.422 7.26,-4.821 10.47,-4.333l0.698,0.143l0.627,-0.143c2.374,-1.538 5.025,-2.934 7.747,-4.053M664.959,3067.18l-0.139,0.558c-0.978,1.399 -2.583,2.099 -4.746,2.237l-0.629,0.139c-1.395,1.049 -2.581,1.261 -3.558,0.561c1.396,-0.7 2.861,-1.4 4.256,-2.03l0.629,-0.07l0,-0.699c2.024,-1.046 3.908,-2.096 5.654,-3.353l0.626,-0.143l0,-0.695c5.514,-3.15 5.933,-2.938 1.258,0.488l-0.56,0.207l0,0.7l-0.069,0.7c-0.209,1.119 -1.046,1.608 -2.722,1.4M675.428,3058.38l0,-0.28c5.862,-2.446 5.862,-2.377 0,0.28M650.303,3076.27l0,-0.7c1.116,-0.488 2.512,-0.626 4.119,-0.419l0.069,0.419l-0.14,0.419c-0.838,0.631 -1.674,1.192 -2.651,1.681l-0.419,0.069c-0.56,0.908 -1.396,1.607 -2.374,2.026c-22.891,18.038 -44.875,37.053 -65.951,57.048c-6.073,5.733 -10.748,7.202 -14.308,4.476l-0.139,-0.7c-0.419,-1.677 -0.629,-3.776 -0.559,-6.291c0.907,-0.7 1.605,-1.68 1.955,-2.869l0.14,-0.626l0,-0.7l0,-0.7c1.396,-1.677 2.651,-3.495 3.768,-5.452l0.419,-0.143l0,-0.696l0,-1.399l0.767,-0.631l0.629,-0.069c1.674,-0.419 2.932,-1.327 3.699,-2.727l0.488,-0.069c0.698,-0.488 1.465,-0.907 2.163,-1.33l0.628,-0.069l0,-0.696c1.327,-0.493 2.582,-1.119 3.63,-1.961l0.557,-0.139l0,-0.7c0.907,-0.069 1.605,-0.276 2.234,-0.557l0.558,-0.143l0,-0.695c0.49,-0.281 0.907,-0.419 1.466,-0.631l0.629,-0.069l0,-0.7c2.651,-1.75 5.023,-2.588 6.978,-2.519l0,0.423c0.908,-0.073 1.537,-0.35 1.954,-0.842l0.14,-0.557l-0.629,-0.139l-0.767,-0.561c1.956,-1.538 4.049,-2.865 6.352,-4.126l0.627,-0.07l0,-0.699c5.025,-2.515 9.631,-5.241 14.099,-8.248l0.557,-0.138l0,-0.7c3.489,-1.677 6.771,-3.496 9.91,-5.453l0.56,-0.142l0,-0.696c1.465,-0.419 2.651,-1.119 3.627,-1.961l0.56,-0.139l0,-0.699c1.536,-0.35 2.722,-1.046 3.63,-1.958l0.557,-0.138l0,-0.7c3.349,-1.4 6.559,-2.726 9.841,-4.126l0.627,-0.069M609.826,3095.85c4.047,-2.519 4.256,-2.376 0.557,0.488l-0.557,0.212l-0.141,0.419c-1.814,1.538 -3.42,2.027 -4.746,1.677c1.605,-0.7 3.072,-1.608 4.327,-2.658l0.56,-0.138" style="fill:#3269b3;"/><path d="M664.261,3067.18l0,-0.7c1.327,-0.069 2.374,-0.488 3.001,-1.258l0.488,-0.142l0,-0.7l-0.698,0l-0.626,0.143c-1.746,1.257 -3.63,2.307 -5.654,3.353l0,0.699c1.326,-0.069 2.372,-0.488 3.001,-1.257l0.488,-0.138" style="fill:#3269b3;"/><path d="M664.261,3066.49l0,0.7l0.698,0c1.676,0.207 2.513,-0.281 2.722,-1.4l0.069,-0.7l-0.488,0.142c-0.627,0.77 -1.674,1.189 -3.001,1.258" style="fill:#3269b3;"/><path d="M664.261,3067.18l-0.488,0.138c-0.629,0.769 -1.675,1.188 -3.001,1.257l-0.14,0.493l-0.558,0.207l0,0.7c2.163,-0.138 3.768,-0.838 4.746,-2.237l0.139,-0.558l-0.698,0" style="fill:#3269b3;"/><path d="M660.772,3068.58l-0.629,0.07c-1.395,0.63 -2.86,1.33 -4.256,2.03c0.977,0.7 2.163,0.488 3.558,-0.561l0.629,-0.139l0,-0.7l0.558,-0.207l0.14,-0.493" style="fill:#3269b3;"/><path d="M667.75,3064.39l0.56,-0.207c4.675,-3.426 4.256,-3.638 -1.258,-0.488l0,0.695l0.698,0" style="fill:#3269b3;"/><path d="M675.428,3058.1l0,0.28c5.862,-2.657 5.862,-2.726 0,-0.28" style="fill:#3269b3;"/><path d="M650.303,3075.57l0,1.4l0.699,0l0,-0.7c0.977,-0.281 1.813,-0.488 2.792,-0.7l0.697,0l-0.069,-0.419c-1.607,-0.207 -3.003,-0.069 -4.12,0.419" style="fill:#3269b3;"/><path d="M650.303,3076.27l-0.627,0.069c-3.282,1.4 -6.492,2.726 -9.841,4.126l0,0.7l0.348,0c-0.488,1.326 -1.534,2.307 -3.14,2.795l0.141,0.489l0.557,0.211c3.211,-1.676 6.281,-3.495 9.144,-5.452l0.626,-0.143l0,-0.696c0.979,-0.28 1.677,-0.699 2.234,-1.261l0.558,-0.138l0,-0.7" style="fill:#3269b3;"/><path d="M647.511,3078.37l0,0.696c0.419,0 0.838,0.074 1.257,0.281l0.139,0.419c0.978,-0.419 1.814,-1.118 2.374,-2.026l0.419,-0.069l-0.14,-0.562l-0.558,-0.138l-0.699,0l-0.558,0.138c-0.557,0.562 -1.255,0.981 -2.234,1.261" style="fill:#3269b3;"/><path d="M651.002,3076.27l0,0.7l0.558,0.138l0.14,0.562c0.977,-0.488 1.813,-1.05 2.651,-1.681l0.14,-0.419l-0.697,0c-0.979,0.212 -1.815,0.419 -2.792,0.7" style="fill:#3269b3;"/><path d="M640.183,3081.17l-0.348,0l-0.558,0.138c-0.907,0.912 -2.093,1.608 -3.629,1.958l0,0.699l0.348,0c-0.279,1.05 -1.186,1.75 -2.442,2.1l0,0.696c1.396,-0.488 2.723,-1.046 4.047,-1.746l0.14,-0.35l-0.557,-0.211l-0.141,-0.489c1.606,-0.488 2.652,-1.469 3.14,-2.795" style="fill:#3269b3;"/><path d="M635.648,3083.96l-0.56,0.139c-0.976,0.842 -2.162,1.542 -3.627,1.961l0,0.696l2.093,0l0,-0.696c1.256,-0.35 2.163,-1.05 2.442,-2.1l-0.348,0" style="fill:#3269b3;"/><path d="M633.414,3087.18l0.14,-0.419l-0.699,0l-1.394,0l-0.141,0.561c-0.976,1.12 -2.372,1.819 -4.048,2.238c0,0.419 0.14,0.839 0.28,1.258l0.418,0.138c1.885,-1.188 3.698,-2.445 5.444,-3.776" style="fill:#3269b3;"/><path d="M631.461,3086.76l-0.56,0.142c-3.139,1.957 -6.421,3.776 -9.91,5.453l0,0.7l-0.557,0.138c-4.468,3.007 -9.074,5.733 -14.099,8.248l0,0.7l0.559,0.142l0.139,0.558c1.257,-1.4 2.862,-2.169 4.886,-2.515l0,0.419c0.908,-0.073 1.534,-0.35 1.954,-0.842l0.14,-0.558l-0.56,-0.211l-0.138,-0.488c1.255,-0.839 2.651,-1.47 4.187,-1.819l0,0.423c0.767,-0.981 1.884,-1.538 3.42,-1.819l0.069,-0.281l0,-0.7l0,-0.695l0.558,-0.212l0.14,-0.488c1.674,-0.631 3.351,-1.189 4.885,-1.819l0,0.419c0.49,0 0.838,-0.139 1.257,-0.35l0.139,-0.35l-0.417,-0.138c-0.141,-0.419 -0.281,-0.839 -0.281,-1.258c1.676,-0.419 3.072,-1.118 4.048,-2.238l0.141,-0.561" style="fill:#3269b3;"/><path d="M626.574,3091.65l0,-0.419c-1.534,0.63 -3.211,1.188 -4.885,1.819l-0.14,0.488l-0.558,0.212l0,1.395c1.955,-0.907 3.63,-2.026 5.025,-3.357l0.558,-0.138" style="fill:#3269b3;"/><path d="M606.335,3102.14l-0.627,0.069c-2.303,1.261 -4.396,2.588 -6.352,4.126l0.767,0.561l0.629,0.139l0,-0.7c0.907,-0.488 1.884,-0.977 2.86,-1.327l0.629,-0.069l0.698,0l0,-0.699l0,-0.701c0.978,0.281 1.536,0.07 1.746,-0.699l0.347,0l-0.138,-0.558l-0.559,-0.142" style="fill:#3269b3;"/><path d="M604.103,3105.56l0.138,-0.627l-0.629,0.069c-0.976,0.35 -1.953,0.839 -2.86,1.327l0,0.7c1.674,0.069 2.861,-0.419 3.351,-1.469" style="fill:#3269b3;"/><path d="M604.939,3104.24l0,0.699c2.303,-1.192 4.606,-2.519 6.84,-3.776l0.14,-0.419l0,-0.419c-2.024,0.346 -3.629,1.115 -4.886,2.514l-0.348,0c-0.21,0.77 -0.768,0.981 -1.746,0.7l0,0.7" style="fill:#3269b3;"/><path d="M617.362,3097.67l0.14,-0.419l0,-0.419c-1.536,0.345 -2.932,0.976 -4.187,1.814l0.138,0.489l0.56,0.211c1.186,-0.488 2.232,-1.05 3.349,-1.676" style="fill:#3269b3;"/><path d="M596.565,3109.83c0.908,-0.069 1.536,-0.35 1.953,-0.838l0.14,-0.557l0,-0.424c-1.955,-0.069 -4.327,0.769 -6.978,2.519l0,0.7c1.953,-0.419 3.628,-0.981 4.885,-1.819l0,0.419" style="fill:#3269b3;"/><path d="M596.425,3110.25l0.14,-0.419l0,-0.419c-1.257,0.838 -2.932,1.4 -4.885,1.819l-0.629,0.069c-0.559,0.212 -0.976,0.35 -1.466,0.631l0,0.695c0.49,0 0.838,0.074 1.257,0.281l0.138,0.419c1.955,-0.907 3.699,-1.888 5.445,-3.076" style="fill:#3269b3;"/><path d="M590.842,3112.9c-0.419,-0.207 -0.767,-0.276 -1.257,-0.276l0.071,0.695c0,0.7 -0.488,0.981 -1.467,0.7c-0.069,0.7 0.419,0.981 1.467,0.7l0.627,0l0.559,-0.769l0.138,-0.631l-0.138,-0.419" style="fill:#3269b3;"/><path d="M590.283,3114.72l-0.627,0c-1.048,0.281 -1.536,0 -1.467,-0.7c0.979,0.281 1.467,0 1.467,-0.7l-0.071,-0.7l-0.558,0.143c-0.629,0.281 -1.327,0.488 -2.234,0.557l0,0.7l0.35,0c-0.698,1.607 -2.234,2.519 -4.537,2.796c-0.278,0.98 -0.069,1.399 0.698,1.399l0.698,0c1.536,-1.468 3.629,-2.518 6.211,-3.145l0.07,-0.35" style="fill:#3269b3;"/><path d="M587.143,3114.02l-0.35,0l-0.557,0.139c-1.048,0.842 -2.303,1.468 -3.63,1.961l0,0.696c2.303,-0.277 3.839,-1.189 4.537,-2.796" style="fill:#3269b3;"/><path d="M583.933,3118.57l0.069,-0.35l-0.698,0c-0.767,0 -0.976,-0.419 -0.698,-1.399l-0.628,0.069c-0.698,0.423 -1.465,0.842 -2.163,1.33c0.069,1.47 0.348,1.746 0.907,0.839l0.488,-0.139c0.908,0 1.885,-0.142 2.723,-0.35" style="fill:#3269b3;"/><path d="M581.21,3118.92l-0.488,0.139c-0.559,0.907 -0.838,0.631 -0.907,-0.839l-0.488,0.07c-0.767,1.399 -2.025,2.307 -3.699,2.726c-0.071,0.7 0.419,1.05 1.395,0.981l0,0.419c1.256,-1.05 2.652,-2.1 4.049,-3.077l0.138,-0.419" style="fill:#3269b3;"/><path d="M574.999,3121.08l-0.767,0.631l0,2.095c0.558,-0.557 1.534,-0.907 2.722,-1.115l0.069,-0.28l0,-0.419c-0.976,0.069 -1.464,-0.281 -1.395,-0.981l-0.629,0.069" style="fill:#3269b3;"/><path d="M610.383,3096.34c3.699,-2.864 3.49,-3.007 -0.559,-0.488l0,0.7l0.559,-0.212" style="fill:#3269b3;"/><path d="M609.826,3096.55l0,-0.7l-0.56,0.138c-1.255,1.05 -2.722,1.958 -4.327,2.657c1.326,0.351 2.932,-0.138 4.746,-1.676l0.141,-0.419" style="fill:#3269b3;"/><path d="M750.105,3015.45l-0.698,-0.143c-3.21,-0.488 -6.702,0.911 -10.47,4.334c0.42,0.423 0.839,0.911 1.256,1.469l0.14,0.63c3.07,-2.099 6.212,-4.057 9.632,-5.872l0.14,-0.418" style="fill:#3269b3;"/><path d="M738.938,3019.64l-0.558,0.142c-0.907,0.7 -1.886,1.327 -2.932,1.957l0,0.7c0.42,0.208 0.837,0.488 1.256,0.838l0.14,0.558c1.048,-0.627 2.024,-1.258 2.932,-1.958l0.557,-0.138l-0.14,-0.63c-0.417,-0.558 -0.836,-1.046 -1.255,-1.469" style="fill:#3269b3;"/><path d="M736.704,3024.26l0.14,-0.419l-0.14,-0.558c-0.419,-0.35 -0.837,-0.63 -1.256,-0.838l-0.628,0.069c-4.327,2.376 -8.515,4.895 -12.633,7.622c0.141,0.769 0.839,1.119 2.094,0.976l0,0.419c3.77,-2.726 7.957,-5.172 12.423,-7.271" style="fill:#3269b3;"/><path d="M721.559,3030.27c-2.93,2.095 -6.002,4.126 -9.141,6.152l0.557,0.7l0.141,0.7c4.117,-1.538 7.607,-3.568 10.608,-6.153l0.557,-0.142l0,-0.419c-1.255,0.143 -1.953,-0.207 -2.093,-0.977l-0.629,0.139" style="fill:#3269b3;"/><path d="M636.903,3079.49l0.14,-0.424l-0.628,0.074c-2.163,1.045 -4.466,1.957 -7.048,2.726l0,0.7c2.999,-0.493 5.512,-1.469 7.536,-3.076" style="fill:#3269b3;"/><path d="M625.738,3085.01l0.138,-0.35l-0.629,0.069c-1.045,0.281 -2.301,0.489 -3.558,0.631l0,1.396c1.257,-0.696 2.582,-1.188 4.049,-1.746" style="fill:#3269b3;"/><path d="M623.783,3103.54l-0.627,0.069c-1.607,0.907 -3.003,2.026 -4.258,3.426c0.209,0.419 0.419,0.907 0.557,1.399l0.14,0.696c1.187,-0.976 2.235,-1.957 3.351,-3.003l0.139,-0.492l-0.558,-0.208l-0.14,-0.488c0.488,-0.281 0.838,-0.561 1.257,-0.911l0.139,-0.488" style="fill:#3269b3;"/><path d="M623.783,3103.54l-0.139,0.488c-0.419,0.35 -0.769,0.63 -1.257,0.911l0.14,0.488l0.558,0.208c5.373,-3.565 10.26,-7.41 14.797,-11.743l0.557,-0.138l0,-0.424c-5.025,1.75 -9.91,4.895 -14.656,9.51l0,0.699" style="fill:#3269b3;"/><path d="M665.657,3072.78l0,-0.419c-3.139,0.138 -6.212,1.676 -9.072,4.614c-0.071,0.7 0.419,1.05 1.395,0.981l0,0.418c2.513,-1.749 4.816,-3.495 7.119,-5.452l0.558,-0.142" style="fill:#3269b3;"/><path d="M715.209,3061.59l-0.071,-0.419c-2.303,-0.208 -4.535,-0.281 -6.909,-0.281c1.467,0.769 3.56,0.981 6.282,0.7l0.698,0" style="fill:#3269b3;"/><path d="M708.229,3060.89l-0.069,-0.419c-1.815,-0.208 -3.699,-0.277 -5.514,-0.277l0,0.696l5.583,0" style="fill:#3269b3;"/><path d="M711.022,3057.39l-0.071,-0.419c-3.001,-0.208 -5.933,-0.277 -9.003,-0.277l0,0.696l9.074,0" style="fill:#3269b3;"/><path d="M691.481,3059.49l-0.698,-0.07c-1.815,-0.211 -3.21,0.07 -4.189,0.769l0,0.696c1.326,-0.557 2.931,-0.907 4.816,-1.119l0.071,-0.276" style="fill:#3269b3;"/><path d="M685.896,3060.89l-0.698,0c-1.326,0.073 -2.513,0.281 -3.489,0.7l0,0.7c1.674,0 2.932,-0.35 4.049,-0.981l0.138,-0.419" style="fill:#3269b3;"/><path d="M702.577,3061.17l0.069,-0.281l-0.698,0l-6.978,0l0,0.7c2.512,0 5.094,-0.138 7.607,-0.419" style="fill:#3269b3;"/><path d="M698.459,3058.1c-1.674,-0.07 -3.07,0.211 -4.187,0.7l0,0.7c1.465,-0.42 3.07,-0.7 4.816,-1.12l0.069,-0.28l-0.698,0" style="fill:#3269b3;"/><path d="M733.355,3088.16l0,-0.7l-0.419,0.069c-0.419,0.912 -0.977,1.538 -1.676,2.03l0,2.796c1.466,-0.7 2.164,-2.096 2.095,-4.195" style="fill:#3269b3;"/><path d="M731.26,3122.41l0,0.699c0.49,1.746 1.257,2.307 2.233,1.539l0.56,-0.143l0,-0.7c2.651,-1.115 3.699,-0.627 3.139,1.4l0.35,0l0.558,-0.207l0.14,-0.493l0,-0.7l0,-1.395l-0.419,-0.143c-0.21,-0.419 -0.279,-0.838 -0.279,-1.257l-0.629,0.069c-1.743,0.562 -3.629,0.981 -5.653,1.331" style="fill:#3269b3;"/><path d="M731.26,3123.11l-0.698,0l-1.396,0l0,2.096c1.257,-0.35 1.815,0.139 1.746,1.4l0.348,0c1.116,-0.35 2.024,-0.769 2.862,-1.262l0.628,-0.138l-0.14,-0.557l-0.557,-0.143l-0.56,0.143c-0.976,0.768 -1.743,0.207 -2.233,-1.539" style="fill:#3269b3;"/><path d="M729.166,3123.81l-0.698,0c-0.976,0.212 -1.815,0.423 -2.791,0.7l0,0.7l0.769,0.488l0.627,0.212c0.978,0.281 1.535,0.069 1.745,-0.7l0.348,0l0,-0.7l0,-0.7" style="fill:#3269b3;"/><path d="M717.303,3128.01l-0.698,0l0,2.799c-0.071,1.396 0.838,1.746 2.722,1.046l0.069,-0.35l-0.35,0c0.072,-1.046 -0.488,-2.234 -1.743,-3.495" style="fill:#3269b3;"/><path d="M716.605,3130.8l0,-0.7l0,-0.7l-0.698,0c-5.166,0.838 -9.841,2.238 -13.959,4.195l0,1.396l2.792,0c0.419,-0.277 0.976,-0.419 1.467,-0.627l0.626,-0.069l0.698,0c1.117,-1.05 1.955,-0.981 2.653,0.069l0.14,0.627l0.698,0l0,-0.696l0,-1.399l0.767,-0.558l0.629,-0.142c2.022,-1.189 2.791,-0.908 2.162,0.7l-0.069,0.699c1.187,-0.212 1.815,-1.188 1.744,-2.795l0.35,0" style="fill:#3269b3;"/><path d="M719.396,3131.5l0.558,-0.208l0.14,-0.488l0,-0.7c0.698,-1.819 1.536,-1.957 2.653,-0.562l0.138,0.562l1.396,0l-0.138,-0.419c-0.698,-0.35 -0.838,-1.188 -0.56,-2.38c1.327,0.492 2.372,0.211 3.351,-0.908l0.139,-0.488l-0.627,-0.212l-0.769,-0.488l-0.627,0c-2.793,0.7 -5.375,1.607 -7.747,2.796c1.255,1.261 1.814,2.449 1.743,3.495l0.35,0" style="fill:#3269b3;"/><path d="M720.094,3130.1l0,0.7c1.257,0.276 2.024,0.138 2.372,-0.561l0.419,-0.139l-0.138,-0.561c-1.117,-1.396 -1.955,-1.258 -2.653,0.561" style="fill:#3269b3;"/><path d="M712.418,3132.2l-0.629,0.142l-0.767,0.558l0,2.095c0.488,-0.488 1.115,-0.769 2.023,-1.046l0.071,-0.35l-0.141,-0.699l-0.557,-0.7" style="fill:#3269b3;"/><path d="M714.511,3133.6l0.069,-0.699c0.629,-1.608 -0.14,-1.889 -2.162,-0.7l0.557,0.7l0.141,0.699l1.395,0" style="fill:#3269b3;"/><path d="M710.324,3134.99l-0.14,-0.627c-0.698,-1.05 -1.536,-1.119 -2.653,-0.069c0.14,1.538 0.838,1.888 2.234,0.839l0.559,-0.143" style="fill:#3269b3;"/><path d="M735.308,3125.35l0.14,0.561c0.698,0 1.325,-0.139 2.023,-0.35l0.071,-0.35l-0.35,0c0.56,-2.026 -0.488,-2.515 -3.139,-1.4l0,0.7l0.557,0.143l0.14,0.557l0.558,0.139" style="fill:#3269b3;"/><path d="M735.448,3125.91l-0.14,-0.561l-0.558,-0.139l-0.628,0.139c-0.838,0.492 -1.746,0.911 -2.862,1.261l0,0.696c1.466,-0.208 2.722,-0.558 3.56,-1.258l0.628,-0.138" style="fill:#3269b3;"/><path d="M731.26,3127.31l0,-0.696l-0.348,0c0.069,-1.262 -0.489,-1.75 -1.746,-1.4l-0.348,0c-0.21,0.769 -0.767,0.981 -1.745,0.7l-0.139,0.488c-0.979,1.119 -2.024,1.4 -3.351,0.908c-0.278,1.192 -0.138,2.03 0.56,2.38l0.138,0.419c2.165,-0.911 4.258,-1.819 6.352,-2.657l0.627,-0.142" style="fill:#3269b3;"/><path d="M699.855,3117.52l-0.07,-0.7c-0.209,-0.489 -0.349,-0.977 -0.628,-1.396l-0.629,0.069c-2.093,0.977 -4.675,2.588 -7.745,4.822c2.72,2.169 5.511,1.331 8.584,-2.657l0.488,-0.138" style="fill:#3269b3;"/><path d="M685.27,3141.29l-0.072,-0.7l-0.698,0c-1.324,0.069 -2.512,0.28 -3.489,0.7l0,0.7c0,0.419 0.069,0.838 0.279,1.188l0.419,0.207l0,-0.7c0.976,0.981 1.674,1.188 1.955,0.631l0.139,-0.631l0,-0.695c0.976,0.276 1.467,0 1.467,-0.7" style="fill:#3269b3;"/><path d="M685.198,3140.59l0.07,0.7c0,0.7 -0.489,0.976 -1.466,0.7l0,0.695c0.489,0.42 1.118,0.493 2.025,0.35l0.069,-0.35l0,-0.695l0,-0.7c1.467,-0.35 2.513,-0.212 3.001,0.488l0.49,0.212l0,-0.7l1.396,0l-0.14,-0.7l-0.558,-0.7l0.698,0l-0.071,-0.419c-0.698,-0.212 -1.325,-0.281 -2.024,-0.281l-0.698,0c-0.977,0.212 -1.813,0.419 -2.792,0.7l0,0.7" style="fill:#3269b3;"/><path d="M690.085,3141.29l-0.698,0l0,1.395c5.164,-0.907 8.305,-2.583 9.63,-4.964l0.14,-0.626l-0.35,0c-0.138,1.676 -1.186,2.376 -3.139,2.095l-0.488,0.143c-0.629,0.769 -1.677,1.188 -3.001,1.257l-0.141,0.35c-0.419,0.208 -0.838,0.35 -1.255,0.35l-0.698,0" style="fill:#3269b3;"/><path d="M688.688,3138.49l0,0.7c0.699,0 1.326,0.069 2.024,0.281l0.071,0.419c2.372,-1.607 2.929,-1.538 1.534,0.138l-0.138,0.562c1.324,-0.069 2.372,-0.488 3.001,-1.257l0.488,-0.143l0.069,-0.7c0.14,-1.395 -0.557,-1.815 -2.163,-1.395l-0.629,0.138c-1.326,0.488 -2.722,0.911 -4.257,1.257" style="fill:#3269b3;"/><path d="M690.643,3140.59l0.138,0.7c0.419,0 0.838,-0.142 1.257,-0.35l0.139,-0.35l0.14,-0.562c1.395,-1.676 0.838,-1.745 -1.536,-0.138l-0.698,0l0.56,0.7" style="fill:#3269b3;"/><path d="M693.574,3136.39l0,0.7c1.606,-0.42 2.303,0 2.163,1.395l-0.069,0.7c1.953,0.281 3.001,-0.419 3.139,-2.095l0.35,0l0,-0.42c-1.257,0.139 -1.953,-0.211 -2.094,-0.98l-0.628,0.142c-0.629,0.488 -1.536,0.627 -2.861,0.558" style="fill:#3269b3;"/><path d="M699.157,3134.99l-0.629,0.073c-0.488,0.208 -1.046,0.35 -1.465,0.627c0.141,0.769 0.837,1.119 2.094,0.98l0,0.42c1.674,0.28 2.791,0.626 3.489,0.976l0,-0.276l0,-0.7l0,-0.7c1.257,0.28 1.955,0.069 2.024,-0.7l0.07,-0.7l-0.698,0l-2.094,0l-0.069,0.35c-1.257,0.35 -2.094,0.142 -2.722,-0.35" style="fill:#3269b3;"/><path d="M699.157,3134.3l0,0.696c0.628,0.493 1.465,0.7 2.722,0.35l0.069,-0.35l0,-0.696l0,-0.7l-0.419,0.139c-0.348,0.699 -1.117,0.838 -2.372,0.561" style="fill:#3269b3;"/><path d="M706.695,3134.93l0.138,-0.627l-0.628,0.069c-0.489,0.208 -1.046,0.35 -1.465,0.631l-0.07,0.696c-0.069,0.769 -0.767,0.98 -2.024,0.7l0,1.4c2.024,-0.35 3.351,-1.331 4.049,-2.869" style="fill:#3269b3;"/><path d="M689.387,3142.68l0,-0.695l-0.49,-0.212c-0.488,-0.7 -1.534,-0.838 -3.001,-0.488l0,0.7c1.396,0.138 2.513,0.488 3.491,0.976l0,-0.281" style="fill:#3269b3;"/><path d="M686.246,3142.68l-0.35,0l-0.069,0.35c-0.907,0.143 -1.536,0.07 -2.024,-0.35l-0.139,0.631c-0.281,0.557 -0.979,0.35 -1.955,-0.631l0,0.7c0.279,0.419 0.419,0.912 0.629,1.4l0.069,0.7c2.163,-0.212 3.42,-1.119 3.839,-2.8" style="fill:#3269b3;"/><path d="M682.338,3144.78c-0.21,-0.488 -0.35,-0.981 -0.629,-1.4l-0.419,-0.207c-0.21,-0.35 -0.279,-0.769 -0.279,-1.188l-0.698,0c-1.814,0.488 -3.768,0.907 -5.582,1.395l0,0.7l1.395,0c3.978,-1.05 4.607,-0.838 2.025,0.488l-0.629,0.212c0.279,0.419 0.419,0.908 0.629,1.396l0.069,0.699c0.976,-0.699 2.163,-1.118 3.489,-1.395l0.698,0l-0.069,-0.7" style="fill:#3269b3;"/><path d="M643.324,3153.87l-0.629,0.073c-2.162,0.627 -4.325,1.258 -6.349,2.027c-0.279,0.976 -0.069,1.395 0.697,1.395l0.698,0l0,-0.696c2.094,-0.98 3.351,-0.768 3.768,0.558l0.419,0.138l0,-0.696l0,-0.699c1.465,1.188 2.165,1.188 2.094,0l0,-0.7l-0.139,-0.7l-0.559,-0.7" style="fill:#3269b3;"/><path d="M637.741,3156.67l0,0.696l1.396,0c0.907,0 1.536,0.281 1.955,0.769l0.138,0.631l0.698,0l0,-0.7l0,-0.7l-0.419,-0.138c-0.417,-1.326 -1.674,-1.538 -3.768,-0.558" style="fill:#3269b3;"/><path d="M638.439,3157.37l-0.698,0l-0.698,0c-0.766,0 -0.976,-0.419 -0.697,-1.395l-0.698,0l0,2.095c2.512,0.212 2.582,0.562 0.069,0.981l-0.069,0.419c0.557,0.557 1.536,0.7 2.722,0.35l0.069,-0.35l0,-0.7l0.558,-0.769l0.14,-0.631l-0.698,0" style="fill:#3269b3;"/><path d="M639.137,3157.37l-0.14,0.631l-0.558,0.769l0,0.7c0.977,0 1.815,-0.142 2.722,-0.35l0.069,-0.35l-0.138,-0.631c-0.419,-0.488 -1.048,-0.769 -1.955,-0.769" style="fill:#3269b3;"/><path d="M644.022,3155.97c0.071,1.188 -0.629,1.188 -2.094,0l0,2.795c1.256,0.281 2.024,0.139 2.372,-0.557l0.42,-0.143l0.14,-0.419c2.094,-0.977 2.025,-1.745 -0.14,-2.376l-0.698,0l0,0.7" style="fill:#3269b3;"/><path d="M643.883,3154.57l0.139,0.7l0.698,0l0,-0.7c1.117,-0.907 2.024,-0.7 2.653,0.7l0.138,0.7l0.559,-0.769l0.139,-0.631l0,-0.7l-0.417,-0.207c-0.21,-0.35 -0.281,-0.769 -0.281,-1.189l-0.626,0.139c-1.048,0.488 -2.235,0.838 -3.561,1.257l0.559,0.7" style="fill:#3269b3;"/><path d="M650.374,3152.47l-0.072,-0.7l-0.626,0.139c-0.488,0.35 -1.258,0.492 -2.165,0.561c0,0.42 0.071,0.839 0.281,1.189l0.417,0.207c1.605,0.419 2.305,-0.069 2.165,-1.396" style="fill:#3269b3;"/><path d="M650.303,3151.78l0.071,0.7c0.14,1.327 -0.56,1.815 -2.165,1.396l0,0.7c2.165,0.488 3.42,0.069 3.77,-1.396l0.419,0c1.814,-0.561 3.489,-1.192 4.954,-1.961l0.628,-0.138l0.698,0l0,-0.7l0,-0.7l-0.698,0c-3,0.281 -5.513,0.911 -7.678,2.099" style="fill:#3269b3;"/><path d="M647.511,3155.97l-0.138,-0.7c-0.629,-1.4 -1.536,-1.607 -2.653,-0.7l0,0.7c2.165,0.631 2.234,1.399 0.14,2.376l-0.14,0.419c0.488,-0.488 1.186,-0.7 2.093,-0.7l0.698,0l0,-0.696l0,-0.699" style="fill:#3269b3;"/><path d="M647.511,3156.67l0,0.696c2.932,-1.257 6.214,-2.307 9.701,-3.145l0.071,-0.35l-0.698,0c-1.257,-0.069 -2.653,-0.35 -4.187,-0.696l-0.419,0c-0.35,1.465 -1.605,1.884 -3.77,1.396l-0.139,0.631l-0.559,0.769l0,0.699" style="fill:#3269b3;"/><path d="M627.272,3157.37l0,0.7c1.605,0 3.281,0.069 4.816,0.281l0.071,0.419l0.698,0l0.138,-0.419c0.697,-0.35 0.628,-0.907 -0.138,-1.677l-0.629,0.139c-1.186,0.557 -2.791,0.769 -4.956,0.557" style="fill:#3269b3;"/><path d="M632.857,3156.67c0.766,0.77 0.836,1.327 0.138,1.677l-0.138,0.419c0.907,-0.069 1.605,-0.211 2.231,-0.557l0.56,-0.143l0,-0.7l0,-0.696l-0.698,0l-2.093,0" style="fill:#3269b3;"/><path d="M635.648,3158.07l-0.56,0.143c-0.626,0.346 -1.324,0.488 -2.231,0.557l-0.698,0l-0.698,0l-0.698,0l0,1.4c1.115,-1.05 1.953,-0.981 2.651,0.069l0.14,0.627c1.953,0.211 2.582,-0.208 1.744,-1.396l0.35,0l0.069,-0.419c2.513,-0.419 2.443,-0.769 -0.069,-0.981" style="fill:#3269b3;"/><path d="M630.763,3160.17l-0.14,0.626l-0.558,0.77l0,0.699c0.977,-0.419 2.163,-0.699 3.418,-1.049l0.071,-0.35l-0.14,-0.627c-0.698,-1.05 -1.536,-1.119 -2.651,-0.069" style="fill:#3269b3;"/><path d="M630.065,3162.26l0,-0.699l-0.698,-0.069c-1.886,-0.139 -3.281,0.069 -4.189,0.768l0,0.7c1.188,-0.561 2.584,-0.769 4.189,-0.7l0.698,0" style="fill:#3269b3;"/><path d="M677.522,3144.78l0.629,-0.212c2.582,-1.326 1.953,-1.538 -2.025,-0.488l0.767,0.488l0.629,0.212" style="fill:#3269b3;"/><path d="M677.522,3144.78l-0.629,-0.212l-0.767,-0.488l-0.698,0l0,1.4c1.465,-0.142 1.744,0.35 0.837,1.538l-0.139,0.557c0.977,0.281 1.534,0.07 1.744,-0.7l0.35,0l-0.069,-0.699c-0.21,-0.488 -0.35,-0.977 -0.629,-1.396" style="fill:#3269b3;"/><path d="M675.428,3144.78l0,-0.7l-0.697,0l-0.698,0l-2.094,0l0,0.7c1.046,0.207 1.115,0.488 0.139,0.977l-0.139,0.419l0.069,0.63c0.21,1.05 0,1.469 -0.768,1.469l0,0.7c2.024,0.277 3.21,-0.073 3.77,-1.261l0.418,-0.139l0,-0.419c-1.257,0.139 -1.955,-0.211 -2.093,-0.98c0.977,0.28 1.534,0.073 1.744,-0.696l0.349,0l0,-0.7" style="fill:#3269b3;"/><path d="M675.428,3145.49l-0.349,0c-0.21,0.769 -0.767,0.976 -1.744,0.696c0.138,0.769 0.836,1.119 2.093,0.98l0,0.419l0.698,0l0.139,-0.557c0.907,-1.188 0.628,-1.68 -0.837,-1.538" style="fill:#3269b3;"/><path d="M671.939,3144.78l-0.628,0.069c-4.187,1.327 -8.376,2.726 -12.633,4.126l0,1.396l2.792,0l0.767,-0.558l0.628,-0.142l0,-0.696c2.932,-0.769 5.793,-1.68 8.446,-2.726l0.628,-0.073l0.139,-0.419c0.976,-0.489 0.907,-0.77 -0.139,-0.977" style="fill:#3269b3;"/><path d="M668.45,3148.28l0,0.7c0.767,-0.492 1.675,-0.419 2.79,0.277l0,-0.277l0,-0.7l-0.07,-0.419c-0.907,-0.211 -1.743,-0.281 -2.72,-0.281l0,0.7" style="fill:#3269b3;"/><path d="M668.45,3148.98l0,-0.7l0,-0.7c0.977,0 1.813,0.07 2.72,0.281l0.07,0.419c0.768,0 0.978,-0.419 0.768,-1.469l-0.069,-0.63l-0.628,0.073c-2.654,1.046 -5.514,1.957 -8.446,2.726l0,0.696c0,0.423 0.07,0.842 0.279,1.192l0.419,0.208c2.303,-0.35 3.909,-0.908 4.747,-1.608l0.14,-0.488" style="fill:#3269b3;"/><path d="M662.865,3149.68l-0.628,0.142l-0.767,0.558l0,2.099c1.257,0.277 1.955,0.07 2.024,-0.7l0.069,-0.699l-0.419,-0.208c-0.209,-0.35 -0.279,-0.769 -0.279,-1.192" style="fill:#3269b3;"/><path d="M656.585,3153.87l1.395,0l0,-0.696l0,-2.099l-0.628,0.138c-1.465,0.769 -3.139,1.4 -4.954,1.961c1.534,0.346 2.93,0.627 4.187,0.696" style="fill:#3269b3;"/><path d="M657.98,3151.08l0,2.795c0.977,-0.419 2.163,-0.696 3.42,-1.046l0.07,-0.35l-0.698,-0.069c-0.629,-0.073 -1.327,-0.492 -2.094,-1.33l-0.698,0" style="fill:#3269b3;"/><path d="M661.47,3152.47l0,-0.7l0,-1.399l-0.698,0l-2.094,0l0,0.7c0.767,0.838 1.465,1.257 2.094,1.33l0.698,0.069" style="fill:#3269b3;"/><path d="M829.666,3137.8l-0.14,-0.562c-3.839,-3.076 -7.538,-1.957 -11.027,3.357l-0.069,0.28c-2.653,0.627 -4.747,0.489 -6.212,-0.28l-0.071,-0.7c-0.21,-3.845 0,-8.248 0.769,-13.281l-0.629,0c-6.001,1.538 -12.353,4.964 -18.912,10.486l-0.14,0.419c-1.815,1.257 -2.932,1.119 -3.351,-0.419c-0.417,-0.7 -0.977,-1.12 -1.465,-1.12c-6.49,-0.557 -14.864,0.77 -25.055,3.915l0,0.281c-2.163,0.069 -3.768,-0.489 -4.885,-1.681c2.024,5.176 6.211,7.345 12.563,6.576l0,0.419c6.35,-4.826 10.887,-5.314 13.538,-1.612l0.419,0.212c8.445,-1.119 15.214,-2.657 20.239,-4.614l0,0.419c4.885,7.271 11.796,10.067 20.658,8.179c0.629,-0.139 1.606,0.211 2.723,1.049c0.418,0.35 1.047,0.558 1.745,0.558l0.138,-0.627c0.56,-0.98 0.56,-2.445 -0.138,-4.264l-0.14,-0.7l-0.558,-0.7l-0.35,-0.069c-0.279,-1.888 -0.348,-3.707 -0.348,-5.521l0.698,0" style="fill:#3269b3;"/><path d="M829.666,3137.8l-0.698,0c0,1.814 0.069,3.633 0.348,5.521l0.35,0.069l0,-0.7l0,-4.89" style="fill:#3269b3;"/><path d="M793.235,3137.51l0.14,-0.419l-0.698,0l-2.793,0c0.419,1.537 1.536,1.676 3.351,0.419" style="fill:#3269b3;"/><path d="M817.942,3140.38c-1.258,-0.907 -3.213,-0.907 -5.724,0.212c1.465,0.769 3.559,0.907 6.212,0.28l0.069,-0.28l-0.557,-0.212" style="fill:#3269b3;"/><path d="M830.502,3149.05l-0.138,0.627l0.489,-0.208c1.324,-1.745 1.186,-3.356 -0.489,-4.683c0.698,1.815 0.698,3.284 0.138,4.264" style="fill:#3269b3;"/><path d="M766.155,3116.12l-0.069,-0.423c-9.91,-1.327 -19.401,0.211 -28.544,4.614l0,0.7c0,0.419 0.069,0.838 0.279,1.257l0.419,0.143c1.953,-0.419 3.629,-1.05 4.954,-1.958l0.629,-0.142c1.955,-0.069 3.56,0.073 4.955,0.561l0.629,0.139c1.813,-0.35 3.418,-0.7 4.954,-0.977l3.001,-0.492c-4.397,6.783 -10.748,13.773 -19.122,21.045c2.932,9.647 9.212,10.974 18.774,3.845c1.046,-0.769 2.163,-0.769 3.489,-0.069c3.349,1.815 6.909,2.164 10.539,1.119l0,-0.419c-6.352,0.769 -10.539,-1.4 -12.563,-6.576c1.117,1.192 2.722,1.75 4.885,1.681l0,-0.281l-0.419,-0.208c-2.303,-4.825 -5.931,-5.733 -10.747,-2.587l-0.14,0.488c-2.163,1.749 -3.977,2.795 -5.373,3.007c0.21,0.557 0.348,1.188 0.417,1.888c0.769,5.241 -1.744,5.102 -7.467,-0.488c3.211,-4.407 5.514,-5.245 6.7,-2.45c1.536,-1.257 3.001,-2.445 4.606,-3.703l0.56,-0.142l0.138,-0.419c7.119,-4.196 12.004,-10.555 14.516,-19.153" style="fill:#3269b3;"/><path d="M760.573,3121.01c2.512,0.488 2.581,0.631 0.069,0.281l-0.069,-0.281" style="fill:#3269b3;"/><path d="M760.642,3121.3c2.512,0.35 2.443,0.211 -0.069,-0.281l0.069,0.281" style="fill:#3269b3;"/><path d="M738.24,3122.41l0,2.095c2.513,-0.769 5.025,-1.607 7.607,-2.445l0.069,-0.35l-0.698,0c-1.255,0.281 -1.674,-0.212 -1.395,-1.4l-0.629,0.142c-1.325,0.908 -3.001,1.539 -4.954,1.958" style="fill:#3269b3;"/><path d="M745.916,3121.71c1.117,0 2.303,-0.139 3.42,-0.419l0.071,-0.281l-0.629,-0.139c-1.395,-0.488 -3,-0.63 -4.955,-0.561c-0.279,1.188 0.14,1.681 1.395,1.4l0.698,0" style="fill:#3269b3;"/><path d="M745.218,3140.59c0.419,0.138 0.979,0.138 1.467,0c1.396,-0.212 3.21,-1.258 5.373,-3.007l0.14,-0.488l-0.418,-0.212c-0.21,-0.35 -0.279,-0.769 -0.279,-1.188l-0.56,0.142c-1.605,1.258 -3.07,2.446 -4.606,3.703c-0.348,0.35 -0.698,0.7 -1.117,1.05" style="fill:#3269b3;"/><path d="M746.685,3140.59c-0.488,0.138 -1.048,0.138 -1.467,0c0.419,-0.35 0.769,-0.7 1.117,-1.05c-1.186,-2.795 -3.489,-1.957 -6.7,2.45c5.723,5.59 8.236,5.729 7.467,0.488c-0.069,-0.7 -0.207,-1.33 -0.417,-1.888" style="fill:#3269b3;"/><path d="M617.362,3088.72l0.14,-0.561l-0.559,0.138c-1.396,1.119 -3.07,1.961 -5.024,2.657l0,0.7c2.373,-0.419 4.187,-1.396 5.443,-2.934" style="fill:#3269b3;"/><path d="M606.335,3093.75l0,0.695c2.233,-0.349 4.048,-1.119 5.444,-2.376l0.14,-0.419l-0.628,0.069c-1.465,0.838 -3.072,1.538 -4.956,2.031" style="fill:#3269b3;"/><path d="M488.388,3174.22c-0.905,0.419 -1.813,0.838 -2.791,1.327l0.559,0.769l0.139,0.631c1.395,-0.489 2.653,-1.12 3.629,-1.958l0.56,-0.138l-0.141,-0.492c-0.419,-0.139 -0.838,-0.208 -1.257,-0.208l-0.698,0.069" style="fill:#3269b3;"/><path d="M485.597,3175.55l-0.557,0.138c-0.977,1.05 -2.235,1.957 -3.63,2.657l0,1.396c1.536,-0.838 3.141,-1.608 4.746,-2.376l0.139,-0.419l-0.139,-0.627l-0.559,-0.769" style="fill:#3269b3;"/><path d="M493.275,3171.35l-0.698,0.069c-1.257,0.488 -2.443,1.188 -3.491,2.026l0,0.7c0.419,0 0.838,0.069 1.257,0.208l0.141,0.492l0.557,-0.212l0.141,-0.488l0,-0.7l0,-0.7c0.905,-0.069 1.534,-0.277 1.953,-0.838l0.14,-0.557" style="fill:#3269b3;"/><path d="M493.275,3170.65l0,0.7l2.094,0c2.024,-1.05 4.046,-2.1 6.142,-3.077l0.138,-0.419l-0.419,-0.211c-0.21,-0.35 -0.279,-0.769 -0.279,-1.188l-0.557,0.138c-2.165,1.538 -4.468,2.938 -7.119,4.057" style="fill:#3269b3;"/><path d="M494.671,3171.35l-1.396,0l-0.14,0.557c-0.419,0.561 -1.048,0.769 -1.953,0.838l0,1.4c1.255,-0.907 2.65,-1.677 4.046,-2.376l0.141,-0.419l-0.698,0" style="fill:#3269b3;"/><path d="M508.628,3162.26c0.49,-0.28 0.838,-0.557 1.257,-0.907l0.138,-0.492l-0.488,0.142c-1.465,1.607 -3.139,2.515 -5.095,2.657l0,0.7c0.698,0 1.396,0.069 1.956,0.277l0.138,0.419c0.698,-0.489 1.326,-1.046 1.955,-1.607l0.139,-0.489l0,-0.7" style="fill:#3269b3;"/><path d="M509.885,3161.35c-0.419,0.35 -0.769,0.627 -1.257,0.907l0,0.7c1.186,-0.7 2.583,-1.257 4.048,-1.749l0.141,-0.346l-0.141,-0.423c-0.419,-0.208 -0.767,-0.277 -1.255,-0.277l-0.698,0l-0.7,0l0,0.7l-0.138,0.488" style="fill:#3269b3;"/><path d="M504.44,3164.36l-0.697,0.069c-0.908,0.419 -1.815,0.838 -2.792,1.327l0,0.7c1.606,-0.069 2.722,-0.558 3.351,-1.539l0.138,-0.557" style="fill:#3269b3;"/><path d="M506.396,3164.64c-0.56,-0.208 -1.258,-0.277 -1.956,-0.277l-0.138,0.557c-0.629,0.981 -1.745,1.47 -3.351,1.539c0,0.419 0.069,0.838 0.279,1.188l0.419,0.211c1.746,-0.631 3.211,-1.468 4.328,-2.657l0.557,-0.142l-0.138,-0.419" style="fill:#3269b3;"/><path d="M498.718,3210.29l0.14,-0.492l-0.35,0c0.419,-0.696 0.35,-1.396 -0.348,-2.096l-0.35,0.069c-0.627,1.888 -1.674,3.288 -3.139,4.126c1.115,0.419 2.512,-0.069 4.047,-1.607" style="fill:#3269b3;"/><path d="M498.16,3207l0,0.7c0.698,0.7 0.767,1.4 0.348,2.096l0.35,0c6.211,-3.845 12.003,-8.11 17.307,-12.862l0.141,-0.42l0,-0.419c-0.977,0.139 -1.396,-0.211 -1.396,-0.98l0.767,-0.627l0.629,-0.073l0,-0.696c1.395,-0.98 2.512,-2.169 3.349,-3.638l0.14,-0.557l-0.558,0.138c-7.607,5.176 -14.656,10.905 -21.077,17.338" style="fill:#3269b3;"/><path d="M481.341,3180.09l0.069,-0.35l-0.629,-0.208c-0.836,-0.419 -2.024,-0.142 -3.558,0.907l0.557,0.77l0.141,0.63c0.976,-0.7 2.093,-1.257 3.42,-1.749" style="fill:#3269b3;"/><path d="M618.06,3110.25l0.14,-0.419l-0.629,0.07c-4.885,2.307 -9.841,5.732 -14.726,10.416l0,0.7l0.56,0.7l0.138,0.7c4.956,-3.915 9.772,-7.971 14.517,-12.167" style="fill:#3269b3;"/><path d="M603.543,3122.41l-0.138,-0.7l-0.56,-0.7l-0.557,0.142c-1.395,1.115 -2.863,2.234 -4.327,3.353l0,0.7l2.093,0c1.046,-0.838 2.163,-1.607 3.351,-2.377l0.138,-0.418" style="fill:#3269b3;"/><path d="M600.054,3125.21l-0.698,0l-1.395,0l-0.56,0.139c-1.953,1.537 -3.837,3.149 -5.721,4.756l0,0.7l-0.629,0.138c-0.697,0.35 -1.466,0.769 -2.164,1.258c0.209,0.419 0.419,0.911 0.559,1.399l0.139,0.7c0.838,-1.05 1.955,-1.819 3.35,-2.449l0.141,-0.35c2.232,-1.957 4.466,-3.915 6.838,-5.803l0.14,-0.488" style="fill:#3269b3;"/><path d="M566.554,3128.7l0.14,-0.63c2.444,-3.565 1.746,-3.772 -2.234,-0.769c-0.278,0.98 -0.069,1.537 0.629,1.68l0.069,0.419l0.77,-0.561l0.626,-0.139" style="fill:#3269b3;"/><path d="M566.554,3129.4l0,-0.7l-0.626,0.139l-0.77,0.561l-0.138,0.488l-0.56,0.212l0,0.7l0.56,0.696l0.138,0.7c0.839,-0.558 1.327,-1.469 1.396,-2.796" style="fill:#3269b3;"/><path d="M588.887,3132.2l-0.417,0.142c-0.489,1.188 -1.257,2.095 -2.375,2.653c-0.069,0.7 0.42,1.05 1.396,0.98l0,0.42c0.698,-0.489 1.327,-1.05 1.955,-1.608l0.139,-0.488l-0.139,-0.7c-0.14,-0.488 -0.35,-0.98 -0.559,-1.399" style="fill:#3269b3;"/><path d="M586.095,3134.99l-0.557,0.143c-4.397,4.195 -9.074,8.109 -14.097,11.742c-0.281,1.189 0.138,1.75 1.396,1.681l0,0.419c4.675,-4.264 9.491,-8.252 14.516,-12.097l0.138,-0.488l0,-0.42c-0.976,0.07 -1.465,-0.28 -1.396,-0.98" style="fill:#3269b3;"/><path d="M570.045,3152.47l-0.14,-0.561c-1.396,-1.538 -2.792,-1.607 -4.049,-0.139l0,0.7l0.35,0c-0.209,0.977 -0.769,1.677 -1.746,2.096l0,1.4c1.467,-1.4 3.073,-2.519 4.957,-3.357l0.628,-0.139" style="fill:#3269b3;"/><path d="M604.241,3165.06l-0.069,-0.419c-2.024,-0.208 -4.118,-0.277 -6.211,-0.277c0.419,0.769 1.255,0.977 2.791,0.696l3.489,0" style="fill:#3269b3;"/><path d="M604.241,3165.06l-0.698,0l-2.093,0c2.443,0.769 5.444,0.911 9.003,0.281l0.071,-0.281l-0.698,0l-4.887,0l-0.698,0" style="fill:#3269b3;"/><path d="M604.939,3164.36l0,0.696l8.376,0l0,-0.696l-0.698,0l-7.678,0" style="fill:#3269b3;"/><path d="M620.224,3163.94l0.069,-0.281l-0.698,-0.069c-2.512,-0.142 -4.605,0.069 -6.28,0.769l0,0.696c2.023,-0.558 4.325,-0.907 6.909,-1.115" style="fill:#3269b3;"/><path d="M619.595,3159.47l-0.697,0l-5.583,0l0,0.7c2.094,0 4.187,-0.143 6.211,-0.419l0.069,-0.281" style="fill:#3269b3;"/><path d="M543.523,3140.59l0,1.4c0.908,-0.074 1.537,-0.35 1.955,-0.842l0.139,-0.558l0,-0.7c0.488,-0.281 0.838,-0.558 1.257,-0.908l0.139,-0.492l-0.698,0.073c-0.907,0.419 -1.884,0.839 -2.792,1.327l0,0.7" style="fill:#3269b3;"/><path d="M543.523,3141.29l0,-0.7l-0.626,0.138c-1.815,0.838 -3.701,1.75 -5.654,2.657l0,0.7l0.557,0.138l0.141,0.562l0.557,0.138l0.14,0.562c1.537,-1.05 3.142,-2.1 4.747,-3.076l0.138,-0.419l0,-0.7" style="fill:#3269b3;"/><path d="M547.013,3137.8l0,0.695c1.257,0.073 2.233,-0.069 2.931,-0.557l0.56,-0.138l0,-0.7c1.255,-0.908 2.651,-1.538 4.256,-2.027l0.629,-0.073c0.488,0 0.838,-0.138 1.255,-0.346l0.14,-0.35l-0.557,-0.212l-0.141,-0.488c0.908,-0.281 1.675,-0.699 2.232,-1.257l0.56,-0.142l0,-0.7c0.907,-0.07 1.536,-0.35 1.953,-0.839l0.14,-0.557l-0.628,0.138c-4.466,2.377 -9.003,4.895 -13.33,7.553" style="fill:#3269b3;"/><path d="M547.013,3138.49l-0.139,0.492c-0.419,0.35 -0.769,0.627 -1.257,0.908l0,0.7c1.955,-0.35 3.56,-1.119 4.746,-2.307l0.141,-0.488l-0.56,0.138c-0.698,0.488 -1.674,0.63 -2.931,0.557" style="fill:#3269b3;"/><path d="M550.504,3137.1l0,0.7c2.022,-0.35 3.627,-1.12 4.744,-2.307l0.141,-0.493l-0.629,0.073c-1.605,0.489 -3.001,1.119 -4.256,2.027" style="fill:#3269b3;"/><path d="M563.065,3127.31l0,0.7c0.559,0.142 0.559,0.838 0.14,2.099l-0.14,0.7l1.395,0l0,-0.7l0.56,-0.212l0.138,-0.488l-0.069,-0.419c-0.698,-0.143 -0.907,-0.7 -0.629,-1.68l-0.697,0l-0.698,0" style="fill:#3269b3;"/><path d="M562.227,3130.39l0.14,0.419l0.698,0l0.14,-0.7c0.419,-1.257 0.419,-1.957 -0.14,-2.099l-0.419,0.142c-0.348,0.7 -0.836,1.046 -1.675,1.257l0,0.7c0.489,0 0.839,0.069 1.256,0.281" style="fill:#3269b3;"/><path d="M562.367,3130.8l-0.14,-0.423c-0.417,-0.208 -0.767,-0.277 -1.256,-0.277l-0.14,0.557c-0.417,0.489 -1.046,0.769 -1.953,0.839l0,0.7l0.697,0c1.256,0.069 2.163,-0.208 2.652,-0.908l0.14,-0.488" style="fill:#3269b3;"/><path d="M558.878,3132.2l-0.56,0.142c-0.557,0.558 -1.324,0.976 -2.232,1.257l0.141,0.489l0.557,0.211c1.606,0.208 2.582,-0.211 2.722,-1.399l0.069,-0.7l-0.697,0" style="fill:#3269b3;"/><path d="M537.243,3144.09l-0.56,0.138c-4.187,2.519 -8.443,5.034 -12.701,7.552c0.488,0.839 1.257,0.977 2.234,0.139l0.557,-0.139l0,-0.699c2.165,-1.119 4.328,-2.238 6.352,-3.357l0.629,-0.139l0,-0.7c1.395,-0.557 2.581,-1.118 3.627,-1.957l0.56,-0.138l-0.141,-0.562l-0.557,-0.138" style="fill:#3269b3;"/><path d="M537.941,3144.78l-0.56,0.138c-1.046,0.839 -2.232,1.4 -3.627,1.957l0,0.7c1.743,-0.35 3.348,-0.907 4.744,-1.676l0.14,-0.419l-0.14,-0.562l-0.557,-0.138" style="fill:#3269b3;"/><path d="M533.754,3147.58l-0.629,0.139c-2.024,1.119 -4.187,2.238 -6.352,3.357l0,1.399c2.584,-1.261 4.816,-2.657 6.84,-4.406l0.141,-0.489" style="fill:#3269b3;"/><path d="M526.773,3151.78l-0.557,0.139c-0.977,0.838 -1.746,0.7 -2.234,-0.139l-0.698,0c-0.279,0.977 -0.069,1.539 0.629,1.677l0.069,0.419c0.907,-0.276 1.815,-0.557 2.653,-1.046l0.138,-0.35l0,-0.7" style="fill:#3269b3;"/><path d="M514.212,3158.07l-0.559,0.143c-0.558,0.557 -1.325,0.976 -2.232,1.257l0,0.7c0.488,0 0.836,0.069 1.255,0.277l0.141,0.419c0.488,0 0.836,-0.139 1.255,-0.346l0.14,-0.35l-0.559,-0.212l-0.138,-0.488c0.835,-0.211 1.185,-0.631 1.045,-1.4l-0.348,0" style="fill:#3269b3;"/><path d="M514.212,3157.37l0,0.7l0.348,0c0.14,0.769 -0.21,1.189 -1.045,1.4l0.138,0.488l0.559,0.212c1.953,-0.911 3.63,-1.957 5.026,-3.357l0.557,-0.139l0,-0.418c-0.977,0.069 -1.396,-0.281 -1.396,-0.981l-0.557,0.138c-1.117,0.7 -2.374,1.4 -3.63,1.957" style="fill:#3269b3;"/><path d="M522.586,3153.87c0.069,-0.769 -0.348,-1.046 -1.396,-0.696l0,0.696l-0.14,0.492l-0.557,0.208l0,1.4c0.488,-0.489 1.186,-0.769 1.955,-1.05l0.138,-0.35l0,-0.7" style="fill:#3269b3;"/><path d="M519.795,3156.67l0.558,-0.211l0.14,-0.488l0,-0.7l0,-0.7l0.557,-0.208l0.14,-0.492l-0.628,0.142c-0.767,0.35 -1.465,0.769 -2.163,1.258c0,0.7 0.419,1.05 1.396,0.981l0,0.418" style="fill:#3269b3;"/><path d="M558.878,3158.07l-0.419,0.143c-0.419,0.838 -0.977,1.464 -1.675,1.957c-0.069,0.696 0.419,1.046 1.396,0.976l0,0.42c0.908,-0.7 1.815,-1.47 2.651,-2.307l0.14,-0.489l0,-0.419c-0.907,0.7 -1.605,0.558 -2.093,-0.281" style="fill:#3269b3;"/><path d="M564.322,3156.32l0.138,-0.35l0,-0.7l0,-0.7c0.977,-0.419 1.537,-1.119 1.746,-2.096l-0.35,0l-0.557,0.139c-1.956,1.957 -4.118,3.845 -6.421,5.452c0.488,0.839 1.186,0.981 2.093,0.281l0,0.419c0.839,-1.05 1.954,-1.819 3.351,-2.445" style="fill:#3269b3;"/><path d="M550.504,3166.46c0.488,0 0.836,0.069 1.255,0.281l0.141,0.418c1.953,-1.818 3.977,-3.495 6.14,-5.102l0.14,-0.492l0,-0.419c-0.977,0.069 -1.465,-0.281 -1.396,-0.977l-0.488,0.138c-1.746,2.096 -3.63,3.846 -5.792,5.453l0,0.7" style="fill:#3269b3;"/><path d="M551.759,3166.74c-0.419,-0.212 -0.767,-0.281 -1.257,-0.281l-0.558,0.138c-5.932,4.545 -11.794,9.09 -17.586,13.842c0.836,0.493 1.953,0.42 3.489,-0.418l0,0.418c5.583,-3.983 10.818,-8.317 15.493,-13.142l0.557,-0.139l-0.138,-0.418" style="fill:#3269b3;"/><path d="M523.284,3186.73l-0.557,0.138c-0.908,0.7 -1.886,1.326 -2.932,1.957l0,0.7c1.255,0.069 2.234,0 2.791,-0.419l0,0.419c2.094,-0.981 2.303,-1.819 0.839,-2.45l-0.141,-0.345" style="fill:#3269b3;"/><path d="M519.795,3192.32l0.558,0.139l0.14,0.561c0.697,-0.769 1.536,-1.33 2.653,-1.75l0.138,-0.35l-0.557,-0.207l-0.141,-0.489l-0.557,0.139c-0.56,0.631 -1.327,0.976 -2.234,1.257l0,0.7" style="fill:#3269b3;"/><path d="M520.353,3192.46l-0.558,-0.139l-0.419,0.07c-0.558,1.187 -1.534,1.887 -3.07,2.026l-0.629,0.069l-0.767,0.631c0,0.769 0.419,1.119 1.396,0.98l0,0.419c1.255,-1.118 2.582,-2.099 4.047,-3.076l0.14,-0.419l-0.14,-0.561" style="fill:#3269b3;"/><path d="M519.376,3192.39l0.419,-0.07l0,-0.7c0.908,-0.28 1.674,-0.626 2.234,-1.257l0.557,-0.139l0,-0.699l0,-0.419c-0.557,0.419 -1.536,0.488 -2.791,0.419l-0.14,0.557c-0.837,1.469 -1.954,2.658 -3.349,3.638l0,0.696c1.536,-0.139 2.512,-0.839 3.07,-2.026" style="fill:#3269b3;"/><path d="M563.763,3197.22c-0.558,3.077 0,4.472 1.674,4.053c6.981,-1.746 6.421,-3.076 -1.674,-4.053" style="fill:#3269b3;"/></svg>